<?xml version="1.0" standalone="no"?>
<!DOCTYPE svg PUBLIC "-//W3C//DTD SVG 20010904//EN"
 "http://www.w3.org/TR/2001/REC-SVG-20010904/DTD/svg10.dtd">
<svg version="1.0" xmlns="http://www.w3.org/2000/svg"
 width="1024.000000pt" height="1024.000000pt" viewBox="0 0 1024.000000 1024.000000"
 preserveAspectRatio="xMidYMid meet">
<metadata>
Created by potrace 1.16, written by Peter Selinger 2001-2019
</metadata>
<g transform="translate(0.000000,1024.000000) scale(0.100000,-0.100000)"
fill="#000000" stroke="none">
<path d="M5095 10071 c-3 -6 -14 -11 -24 -11 -10 0 -26 -9 -36 -20 -11 -12
-35 -28 -54 -38 -20 -9 -42 -22 -49 -29 -7 -7 -18 -13 -24 -13 -5 0 -19 -11
-30 -25 -11 -14 -25 -25 -32 -25 -14 0 -116 -101 -116 -116 0 -6 -11 -20 -25
-30 -14 -10 -25 -24 -25 -31 0 -6 -6 -18 -12 -25 -7 -7 -20 -26 -28 -43 -42
-85 -52 -95 -102 -95 -26 0 -49 -4 -52 -9 -3 -4 -37 -11 -76 -15 -38 -4 -72
-11 -75 -17 -4 -5 -24 -9 -46 -9 -21 0 -39 -4 -39 -10 0 -5 -3 -9 -7 -8 -5 1
-18 -3 -30 -10 -12 -6 -30 -9 -40 -5 -21 7 -54 39 -47 45 2 3 -5 13 -16 23
-11 10 -20 22 -20 27 0 5 -11 19 -25 32 -14 13 -25 27 -25 32 0 13 -101 116
-107 110 -3 -3 -16 6 -28 20 -22 26 -55 48 -87 60 -10 3 -18 10 -18 14 0 4
-11 11 -25 14 -14 4 -25 11 -25 16 0 6 -9 10 -20 10 -11 0 -28 4 -38 9 -54 27
-73 33 -97 29 -14 -3 -28 -1 -31 3 -6 11 -234 12 -234 1 0 -4 -20 -6 -45 -4
-28 3 -45 0 -45 -7 0 -6 -7 -11 -15 -11 -8 0 -23 -4 -33 -9 -31 -17 -90 -41
-99 -41 -5 0 -15 -9 -23 -20 -8 -11 -19 -20 -25 -20 -14 0 -120 -110 -128
-132 -4 -10 -11 -18 -17 -18 -5 0 -10 -9 -10 -19 0 -11 -3 -21 -7 -23 -12 -5
-43 -64 -43 -82 0 -9 -4 -24 -9 -34 -34 -67 -36 -79 -36 -223 1 -142 3 -156
36 -221 5 -10 9 -25 9 -33 0 -21 50 -114 80 -147 14 -16 57 -64 95 -107 39
-43 74 -79 79 -80 6 -1 20 -11 32 -22 13 -12 33 -27 45 -33 12 -6 27 -20 33
-31 6 -11 18 -25 26 -32 12 -10 8 -12 -27 -13 -24 0 -43 -4 -43 -10 0 -6 -27
-10 -60 -10 -33 0 -60 -4 -60 -8 0 -5 -27 -6 -61 -4 -35 3 -77 -1 -100 -8
l-39 -13 0 -132 c0 -74 -4 -135 -10 -141 -14 -14 11 -64 32 -64 31 0 72 -23
116 -64 23 -22 42 -46 42 -53 0 -7 5 -13 10 -13 6 0 10 -11 10 -24 0 -13 7
-29 15 -36 12 -10 15 -48 15 -225 0 -177 -3 -215 -15 -225 -8 -7 -15 -18 -15
-24 0 -7 -11 -23 -25 -36 -14 -13 -25 -31 -25 -41 0 -9 -6 -22 -14 -28 -8 -6
-20 -26 -27 -44 -7 -18 -21 -42 -32 -54 -11 -13 -17 -23 -12 -23 4 0 -1 -8
-11 -17 -20 -18 -54 -82 -54 -102 0 -6 -3 -11 -8 -11 -8 0 -42 -73 -42 -90 0
-6 -4 -10 -10 -10 -5 0 -10 -11 -10 -24 0 -14 -4 -27 -9 -31 -5 -3 -12 -19
-16 -35 -4 -17 -11 -30 -16 -30 -5 0 -9 -10 -9 -23 0 -13 -4 -27 -9 -32 -10
-11 -21 -82 -21 -132 1 -18 -4 -33 -10 -33 -6 0 -10 -49 -10 -135 0 -87 4
-135 10 -135 6 0 10 -19 9 -42 -1 -55 11 -128 22 -128 5 0 9 -18 9 -40 0 -22
5 -40 10 -40 18 0 11 -46 -10 -65 -11 -10 -20 -25 -20 -33 0 -18 -51 -126 -62
-130 -4 -2 -8 -8 -8 -13 0 -16 -35 -89 -42 -89 -5 0 -8 -5 -8 -11 0 -13 -31
-82 -40 -89 -12 -10 -40 -79 -40 -99 0 -12 -3 -21 -8 -21 -8 0 -42 -73 -42
-90 0 -6 -4 -10 -10 -10 -5 0 -10 -11 -10 -24 0 -14 -4 -27 -9 -31 -5 -3 -13
-20 -17 -37 -3 -18 -10 -39 -14 -48 -23 -44 -40 -90 -40 -109 0 -12 -3 -21 -8
-21 -10 0 -29 -47 -38 -93 -3 -20 -10 -40 -15 -43 -5 -3 -9 -16 -9 -30 0 -13
-4 -24 -10 -24 -5 0 -10 -11 -10 -24 0 -14 -4 -27 -9 -31 -6 -3 -13 -26 -17
-50 -3 -25 -10 -45 -15 -45 -5 0 -9 -10 -9 -23 0 -13 -5 -28 -11 -34 -5 -5
-13 -36 -16 -67 -3 -31 -10 -59 -14 -62 -5 -3 -9 -16 -9 -30 0 -13 -4 -24 -9
-24 -5 0 -13 -29 -16 -65 -4 -36 -11 -65 -16 -65 -5 0 -9 -16 -9 -35 0 -19 -4
-35 -9 -35 -9 0 -21 -70 -21 -122 0 -16 -4 -28 -10 -28 -5 0 -10 -22 -10 -49
0 -28 -4 -53 -10 -56 -5 -3 -10 -15 -10 -26 0 -11 -7 -19 -16 -19 -8 0 -12 -4
-9 -10 4 -6 -6 -10 -24 -10 -16 0 -33 5 -36 10 -3 6 -34 10 -69 10 -34 0 -66
4 -72 9 -14 14 -114 20 -114 7 0 -6 -4 -6 -9 2 -5 9 -29 12 -81 10 -61 -3 -75
-6 -84 -23 -6 -11 -13 -22 -17 -25 -7 -7 -39 -76 -39 -85 0 -4 -8 -15 -18 -24
-19 -17 -52 -81 -52 -100 0 -6 -4 -11 -10 -11 -5 0 -10 -9 -10 -20 0 -11 -4
-20 -9 -20 -5 0 -11 -8 -15 -17 -3 -10 -17 -36 -31 -58 -26 -42 -45 -81 -45
-94 0 -4 -9 -16 -20 -26 -11 -10 -20 -26 -20 -35 0 -10 -6 -23 -14 -29 -8 -7
-18 -26 -21 -42 -4 -16 -11 -29 -16 -29 -5 0 -9 -9 -9 -20 0 -11 -3 -20 -8
-20 -11 0 -34 -58 -27 -70 3 -5 17 -10 31 -10 13 0 24 -4 24 -10 0 -5 7 -10
15 -10 8 0 15 -4 15 -10 0 -5 7 -10 16 -10 9 0 12 -5 8 -12 -5 -8 0 -9 14 -6
12 4 20 2 17 -3 -4 -5 9 -23 27 -41 18 -18 32 -35 30 -38 -6 -12 30 -41 45
-36 12 5 14 1 10 -14 -3 -13 -1 -18 6 -13 7 4 8 0 4 -11 -5 -14 -3 -17 8 -12
11 4 15 -1 15 -19 l0 -25 -165 0 c-140 0 -167 -2 -172 -15 -3 -9 3 -25 12 -35
18 -20 37 -49 51 -80 4 -8 10 -17 14 -20 13 -11 70 -96 86 -130 4 -8 23 -36
41 -62 18 -26 33 -51 33 -54 0 -4 11 -22 25 -40 14 -18 25 -41 25 -51 0 -23
-45 -44 -97 -45 -286 -5 -420 -11 -427 -18 -6 -6 -50 -10 -98 -10 -83 0 -88
-1 -88 -21 0 -12 11 -32 25 -45 14 -13 25 -27 25 -32 0 -5 9 -17 20 -27 10 -9
29 -36 41 -58 11 -23 29 -48 38 -57 9 -8 23 -29 30 -47 7 -18 19 -38 27 -44 8
-6 14 -22 14 -34 0 -13 6 -25 13 -27 19 -7 17 -283 -3 -326 -8 -17 -18 -32
-22 -32 -3 0 -9 -13 -13 -29 -3 -16 -15 -37 -26 -47 -10 -9 -19 -22 -19 -28 0
-15 -112 -126 -127 -126 -7 0 -18 -12 -26 -28 -7 -15 -18 -26 -24 -25 -6 1
-19 -7 -28 -17 -10 -11 -29 -20 -42 -20 -12 0 -23 -4 -23 -9 0 -5 -12 -12 -27
-16 -40 -10 -116 -90 -138 -145 -4 -8 -11 -23 -16 -32 -5 -10 -9 -29 -9 -43 0
-14 -4 -25 -10 -25 -14 0 -14 -817 0 -825 5 -3 10 -21 10 -40 0 -19 4 -37 10
-40 5 -3 10 -17 10 -31 0 -13 5 -24 10 -24 6 0 10 -6 10 -12 1 -19 80 -99 91
-93 5 4 9 3 9 -2 0 -11 50 -33 76 -33 13 0 26 -4 29 -10 9 -14 9005 -14 9005
0 0 6 16 10 35 10 19 0 35 4 35 9 0 5 13 12 29 16 16 3 37 15 47 26 9 10 22
19 28 19 6 0 19 17 29 38 9 20 21 44 25 52 5 8 14 25 20 37 17 32 21 945 4
951 -7 2 -12 14 -12 27 0 13 -11 37 -25 53 -14 17 -25 34 -25 39 0 17 -65 72
-92 78 -16 4 -28 11 -28 16 0 5 -11 9 -23 9 -13 0 -32 9 -42 20 -10 11 -20 18
-23 15 -3 -2 -18 11 -35 30 -16 19 -35 35 -41 35 -15 0 -86 72 -86 87 0 6 -3
13 -7 15 -24 10 -93 130 -93 161 0 9 -4 19 -10 22 -5 3 -10 17 -10 31 0 13 -4
24 -10 24 -6 0 -10 26 -10 59 0 33 5 63 10 66 6 3 10 24 10 45 0 21 4 41 9 44
5 3 12 22 15 41 4 19 11 35 16 35 6 0 10 9 10 20 0 11 4 20 9 20 5 0 12 8 15
18 13 35 38 73 52 79 8 3 14 14 14 24 0 11 7 22 15 25 8 4 15 12 15 18 0 7 11
23 25 36 14 13 25 29 25 35 0 7 9 20 20 30 11 10 20 24 20 31 0 15 -83 24
-122 13 -29 -8 -443 -1 -468 8 -31 11 -130 8 -130 -4 0 -7 -11 -2 -25 11 -14
13 -25 27 -25 31 0 4 23 32 50 63 28 31 50 61 50 67 0 7 9 20 20 30 11 10 20
24 20 32 0 7 7 16 15 19 8 4 15 10 15 15 0 5 15 31 33 57 48 71 56 85 67 110
5 12 17 25 25 28 8 4 15 12 15 19 0 7 7 18 15 25 31 25 17 40 -36 40 -31 0
-48 4 -44 10 3 6 -3 10 -15 10 -12 0 -18 -5 -15 -10 4 -6 -36 -10 -113 -10
-120 0 -120 0 -124 25 -5 26 13 50 27 37 5 -4 5 -2 2 4 -8 14 28 48 41 40 13
-8 56 40 47 53 -3 6 1 11 10 11 20 0 48 27 41 39 -3 5 4 7 16 4 13 -3 20 -2
16 2 -9 10 54 55 76 55 18 0 23 54 7 64 -5 4 -30 48 -55 99 -47 92 -66 128
-76 137 -3 3 -14 25 -25 50 -11 25 -27 52 -37 61 -10 9 -18 20 -18 24 0 10
-32 79 -40 85 -9 7 -40 76 -40 89 0 6 -9 16 -20 23 -11 7 -20 16 -20 20 0 16
-35 88 -42 88 -5 0 -8 9 -8 20 0 11 -7 20 -15 20 -8 0 -15 -4 -15 -9 0 -5 -59
-12 -130 -16 -72 -4 -133 -11 -136 -16 -3 -5 -34 -9 -69 -9 -35 0 -67 -4 -70
-10 -9 -14 -51 -12 -63 3 -6 7 -14 43 -18 80 -4 37 -11 70 -15 73 -5 3 -9 23
-9 44 0 21 -4 41 -9 44 -5 3 -12 33 -16 66 -4 33 -11 63 -16 66 -5 3 -9 18 -9
33 0 15 -3 31 -7 35 -8 7 -29 90 -40 154 -3 17 -9 32 -14 32 -5 0 -9 15 -9 34
0 19 -5 38 -11 41 -6 4 -8 13 -5 21 3 7 1 16 -4 19 -6 4 -10 17 -10 31 0 13
-4 24 -10 24 -5 0 -10 11 -10 24 0 14 -4 27 -9 31 -6 3 -13 26 -17 50 -3 25
-10 45 -15 45 -5 0 -9 9 -9 20 0 11 -4 20 -9 20 -5 0 -11 18 -15 40 -3 22 -15
55 -25 73 -10 18 -22 49 -26 68 -8 42 -28 89 -37 89 -3 0 -10 14 -13 32 -4 17
-16 47 -26 65 -11 19 -19 42 -19 53 0 11 -4 20 -10 20 -5 0 -9 3 -8 8 2 11
-36 92 -44 92 -3 0 -9 15 -13 33 -9 42 -28 87 -37 87 -5 0 -8 5 -8 11 0 13
-31 82 -40 89 -9 7 -40 76 -40 89 0 6 -3 11 -8 11 -4 0 -14 15 -21 33 -8 17
-21 38 -28 45 -15 15 -18 108 -4 117 5 3 13 34 16 70 4 36 11 65 16 65 5 0 9
22 9 49 0 28 5 53 10 56 6 3 10 50 10 105 0 55 -4 102 -10 105 -5 3 -10 28
-10 56 0 27 -4 49 -10 49 -5 0 -10 18 -10 39 0 22 -4 42 -10 46 -5 3 -7 12 -4
19 3 8 1 17 -5 21 -6 3 -11 15 -11 25 0 10 -16 49 -35 86 -19 37 -35 72 -35
79 0 16 -69 153 -81 160 -5 4 -20 30 -33 58 -13 29 -31 58 -39 66 -9 7 -19 26
-22 42 -4 16 -14 35 -24 41 -10 7 -21 20 -25 28 -12 26 -31 57 -45 74 -13 16
-19 141 -7 153 3 4 6 52 6 108 0 55 4 105 8 111 5 5 17 36 27 69 22 71 84 143
154 178 l46 22 3 144 c3 183 2 184 -110 179 -43 -2 -78 0 -78 4 0 5 -40 8 -89
8 -62 0 -90 4 -93 13 -8 20 11 77 26 77 7 0 23 11 36 25 13 14 29 25 36 25 7
0 21 11 32 25 11 14 27 25 36 25 9 0 16 6 16 13 0 7 23 35 50 62 28 27 50 55
50 62 0 6 8 18 18 25 10 7 27 34 38 60 10 27 22 48 27 48 4 0 7 10 7 23 0 13
5 28 11 34 5 5 13 36 16 67 3 31 10 59 14 62 11 6 12 184 2 184 -5 0 -9 25
-10 56 -1 35 -7 62 -17 73 -9 10 -16 22 -16 27 0 17 -59 127 -80 149 -11 12
-20 25 -20 29 0 19 -86 96 -112 102 -16 3 -34 14 -41 25 -6 10 -16 19 -21 19
-12 0 -120 52 -126 61 -3 5 -58 11 -123 15 -65 4 -120 11 -123 15 -10 16 -59
9 -71 -9 -8 -14 -20 -18 -41 -14 -16 2 -33 -1 -36 -7 -4 -6 -17 -11 -30 -11
-25 0 -76 -21 -76 -32 0 -5 -4 -8 -10 -8 -17 0 -90 -34 -90 -42 0 -5 -6 -8
-13 -8 -8 0 -24 -11 -37 -25 -13 -14 -28 -25 -33 -25 -12 0 -117 -105 -117
-117 0 -5 -13 -22 -30 -38 -16 -15 -28 -31 -27 -35 1 -4 -10 -22 -25 -39 -16
-17 -28 -35 -28 -40 0 -28 -49 -20 -51 8 0 10 -2 11 -6 4 -6 -15 -43 -17 -43
-3 0 6 -15 10 -34 10 -19 0 -38 5 -42 11 -3 6 -17 9 -30 6 -14 -2 -27 0 -30 4
-3 5 -23 9 -45 9 -21 0 -39 5 -39 10 0 6 -20 10 -44 10 -32 0 -46 5 -51 18
-10 27 -6 173 5 188 6 7 12 32 13 56 l2 43 -65 -2 c-136 -5 -182 -13 -242 -44
-10 -5 -26 -9 -36 -9 -9 0 -27 -6 -38 -14 -19 -13 -54 -19 -99 -17 -17 1 -21
9 -23 44 -1 23 -5 87 -9 142 -8 99 -8 100 -35 103 -14 2 -29 -2 -33 -7z m1745
-360 c3 -4 21 -6 40 -5 19 0 42 -2 50 -7 8 -4 32 -15 53 -24 21 -9 41 -23 44
-30 2 -8 15 -17 26 -21 24 -8 46 -32 47 -51 0 -6 13 -27 30 -45 16 -18 32 -48
36 -68 3 -19 9 -42 14 -51 13 -25 15 -211 2 -235 -6 -12 -9 -24 -6 -27 15 -14
-23 -47 -56 -48 -30 -2 -31 -3 -7 -6 25 -4 40 -33 17 -33 -5 0 -10 -9 -10 -19
0 -11 -5 -23 -10 -26 -6 -4 -8 -10 -6 -14 6 -9 -114 -126 -159 -156 -85 -56
-195 -99 -230 -89 -16 4 -17 3 -5 -5 24 -17 4 -24 -34 -11 -37 12 -40 30 -5
30 10 0 19 5 19 10 0 6 4 10 9 10 16 0 101 60 101 71 0 6 12 15 28 22 30 13
112 97 112 116 0 6 5 11 10 11 6 0 15 10 20 23 6 12 14 29 19 37 5 8 12 23 15
33 5 15 9 16 26 7 13 -7 20 -7 20 0 0 5 -7 10 -15 10 -21 0 -19 33 5 72 16 26
20 51 20 115 0 45 -5 85 -10 88 -6 4 -8 10 -5 15 3 5 0 12 -5 15 -6 4 -15 18
-20 31 -5 13 -27 35 -49 48 -22 14 -45 34 -50 45 -22 40 -182 13 -214 -36 -4
-7 -18 -13 -30 -13 -22 0 -57 -31 -57 -50 0 -5 -12 -15 -27 -22 -15 -7 -33
-23 -39 -36 -6 -12 -21 -34 -34 -47 -25 -27 -34 -42 -69 -112 -13 -26 -27 -55
-31 -63 -4 -9 -11 -30 -14 -48 -4 -17 -12 -34 -17 -37 -5 -4 -9 -30 -9 -58 1
-45 5 -57 35 -89 20 -21 39 -38 43 -38 4 -1 21 -19 37 -41 17 -22 40 -50 53
-61 12 -12 22 -28 22 -35 0 -7 12 -16 28 -19 25 -5 27 -10 27 -50 0 -25 5 -48
11 -52 11 -7 34 -45 34 -56 0 -3 -151 -5 -336 -6 -185 0 -342 -4 -348 -7 -6
-4 -31 -8 -56 -9 -25 -1 -67 -7 -95 -13 -27 -6 -57 -12 -65 -13 -8 0 -23 -7
-32 -15 -9 -8 -22 -12 -27 -8 -6 3 -24 -3 -40 -14 -15 -11 -30 -18 -33 -15 -3
2 -11 -2 -17 -10 -7 -8 -18 -13 -25 -10 -6 2 -21 -3 -31 -13 -11 -10 -33 -25
-50 -33 -16 -8 -38 -21 -47 -28 -15 -13 -22 -12 -52 2 -19 9 -45 16 -59 16
-14 0 -29 5 -32 10 -3 6 -30 10 -60 10 -30 0 -57 5 -60 10 -3 6 -48 10 -100
10 -52 0 -97 -4 -100 -10 -3 -5 -21 -10 -40 -10 -19 0 -37 -5 -41 -11 -3 -6
-18 -9 -32 -6 -25 5 -33 3 -79 -21 -33 -17 -61 -15 -73 7 -5 11 -23 22 -40 26
-16 4 -38 17 -47 29 -10 12 -23 21 -30 19 -6 -2 -14 0 -17 6 -4 6 -13 8 -21 4
-8 -3 -15 0 -15 6 0 6 -6 11 -14 11 -7 0 -27 7 -42 15 -16 8 -39 15 -51 15
-12 0 -24 4 -28 9 -3 5 -19 9 -35 9 -16 -1 -35 3 -42 9 -7 5 -40 9 -73 8 -33
-1 -65 2 -71 6 -6 5 -157 9 -337 9 -180 1 -327 4 -327 8 0 13 42 91 54 102 8
6 11 20 9 32 -5 18 -3 19 18 13 21 -7 22 -6 11 8 -11 13 -10 16 7 22 12 3 21
12 21 20 0 8 9 16 19 20 14 4 17 12 13 27 -4 17 -2 20 11 15 11 -4 17 -1 17 8
0 8 9 20 20 27 11 7 20 21 20 30 0 10 5 18 12 18 21 0 68 53 68 77 0 13 -5 23
-11 23 -7 0 -9 10 -5 24 3 14 2 28 -4 31 -5 3 -10 16 -10 29 0 12 -6 28 -12
35 -10 11 -10 14 0 18 6 3 12 9 12 14 0 6 -5 7 -10 4 -6 -3 -13 2 -17 12 -3
10 -19 34 -35 54 -32 42 -35 54 -12 45 14 -5 15 -4 4 9 -7 8 -19 15 -27 15
-10 0 -12 6 -8 20 4 14 2 20 -8 20 -24 0 -137 117 -131 135 7 17 -7 20 -22 5
-7 -7 -16 -4 -29 10 -10 11 -27 20 -37 20 -10 0 -21 6 -24 14 -3 8 -12 12 -19
10 -7 -3 -16 -1 -20 5 -3 6 -19 11 -35 11 -16 0 -32 5 -36 12 -5 7 -10 4 -15
-10 -5 -13 -14 -19 -22 -16 -8 3 -21 -5 -30 -18 -25 -36 -85 -98 -96 -98 -5 0
-11 -10 -13 -22 -2 -18 -9 -23 -28 -21 -14 1 -18 0 -7 -3 14 -5 17 -17 17 -69
0 -35 4 -66 9 -69 4 -3 11 -28 13 -55 3 -27 14 -62 26 -79 12 -16 22 -37 22
-46 0 -9 7 -19 15 -22 8 -4 15 -12 15 -18 0 -7 16 -27 35 -46 19 -19 35 -39
35 -46 0 -6 7 -17 15 -24 13 -11 13 -15 3 -22 -8 -5 -1 -6 17 -2 26 5 33 1 44
-20 8 -14 29 -32 47 -41 19 -9 34 -20 34 -25 0 -5 10 -12 21 -15 15 -5 18 -9
9 -15 -10 -6 -9 -9 1 -16 7 -4 14 -3 17 4 5 16 32 15 32 -1 0 -8 -12 -20 -26
-27 -23 -13 -27 -12 -35 2 -6 10 -16 15 -25 11 -18 -7 -106 36 -98 48 3 5 -1
6 -9 3 -14 -5 -78 25 -108 52 -8 8 -20 14 -26 14 -13 0 -113 100 -113 112 0 5
-13 26 -29 46 -17 20 -33 49 -36 65 -4 15 -11 27 -16 27 -5 0 -9 15 -9 34 0
19 -5 38 -10 41 -7 4 -10 48 -9 113 1 94 4 111 25 142 13 19 24 45 24 58 0 12
7 25 15 28 8 4 15 14 15 23 0 21 53 71 103 96 20 11 37 24 37 28 0 5 11 7 24
5 15 -3 27 0 30 8 4 11 35 14 135 14 76 0 132 -4 136 -10 3 -5 18 -10 32 -10
17 0 23 -4 20 -13 -4 -10 3 -12 25 -9 26 4 28 2 23 -19 -4 -15 0 -32 10 -44
15 -19 16 -18 10 18 -7 43 5 48 29 12 10 -15 22 -22 31 -19 19 8 165 -132 165
-158 0 -10 7 -18 15 -18 8 0 15 -9 15 -20 0 -11 3 -20 8 -20 11 0 42 -75 46
-113 2 -20 9 -31 17 -30 8 2 19 -7 24 -20 11 -24 37 -33 63 -21 9 4 21 6 25 5
4 0 10 6 13 14 4 8 17 15 29 15 13 0 27 5 31 11 3 6 15 9 25 6 10 -3 24 1 30
9 7 8 20 12 30 9 9 -3 20 -1 24 5 3 5 19 10 34 10 15 0 32 5 38 11 13 13 36 3
28 -12 -4 -5 -1 -9 4 -9 6 0 11 9 11 20 0 18 7 20 64 20 36 0 68 5 71 10 3 6
43 10 89 10 75 0 85 2 106 24 13 15 20 31 16 41 -3 9 1 18 9 22 9 3 14 10 13
17 -1 6 4 22 12 36 8 14 26 46 40 71 37 67 100 149 116 151 8 0 20 1 27 2 7 1
11 -9 9 -26 -2 -16 1 -28 6 -28 5 0 12 -8 14 -17 8 -32 11 -37 35 -80 12 -23
23 -49 23 -57 0 -9 5 -16 10 -16 6 0 10 -9 10 -20 0 -38 51 -45 77 -11 11 14
13 14 27 -4 13 -17 15 -17 16 -3 0 9 -6 18 -12 20 -19 7 43 68 68 68 12 0 27
7 34 15 7 8 21 15 31 15 11 0 19 -7 19 -15 0 -8 5 -15 11 -15 7 0 9 9 5 24 -4
18 -1 25 14 29 17 4 20 0 20 -23 0 -16 5 -32 11 -36 7 -4 9 -22 6 -45 -3 -22
-1 -42 4 -45 5 -3 9 -14 9 -24 0 -10 9 -35 21 -54 21 -35 42 -46 54 -26 8 14
172 13 180 -1 4 -6 27 -9 51 -8 24 2 46 0 50 -4 4 -4 25 -7 46 -7 21 0 46 -4
56 -9 9 -5 28 -13 42 -19 14 -5 41 -17 62 -26 20 -9 41 -16 47 -16 7 0 29 -9
51 -20 22 -11 47 -20 56 -20 26 0 64 40 64 67 0 13 5 23 10 23 6 0 18 17 27
38 10 20 19 39 20 41 1 2 9 -2 18 -9 17 -14 21 0 4 17 -16 16 13 76 50 102 16
12 28 28 27 38 0 9 9 22 22 29 13 6 36 23 50 38 15 14 42 29 60 32 18 4 32 10
32 15 0 8 34 25 113 58 15 6 47 11 70 12 23 0 51 4 62 9 20 8 55 3 65 -9z
m-2591 -1424 c42 -3 77 -10 81 -17 4 -7 16 -9 29 -5 14 4 23 2 27 -8 3 -9 14
-12 30 -9 25 4 64 -24 64 -47 0 -5 10 -17 22 -25 12 -9 19 -19 15 -22 -3 -4 2
-19 13 -34 11 -16 20 -42 20 -59 0 -17 5 -31 11 -31 7 0 9 -35 5 -107 -5 -131
-15 -193 -28 -193 -6 0 -8 -12 -5 -29 4 -17 1 -36 -7 -46 -7 -10 -11 -27 -8
-37 2 -10 -2 -26 -11 -36 -9 -9 -16 -21 -16 -25 1 -18 -72 -155 -91 -172 -11
-10 -20 -25 -20 -33 0 -8 -6 -12 -15 -8 -9 3 -19 -3 -25 -14 -13 -24 -109 -68
-134 -62 -5 2 -16 -4 -26 -13 -11 -10 -27 -13 -47 -9 -18 3 -33 1 -37 -5 -5
-7 -64 -11 -176 -11 -147 0 -169 2 -174 17 -4 11 -10 13 -17 6 -12 -12 -69 -5
-69 9 0 6 -7 8 -15 4 -12 -4 -60 15 -135 54 -8 4 -14 15 -14 23 1 9 -4 13 -10
11 -33 -13 -126 172 -126 249 0 14 -5 29 -10 32 -12 8 -11 183 2 191 4 3 8 16
8 29 0 14 9 39 19 56 11 17 17 38 14 45 -3 8 2 16 10 20 8 3 18 21 21 40 4 19
11 34 16 34 6 0 10 7 10 16 0 11 6 14 20 9 24 -8 27 10 4 19 -15 6 -15 9 -3
24 8 9 25 37 38 62 13 25 29 52 36 60 7 8 15 22 18 31 5 14 19 16 91 14 47 -2
89 1 92 6 5 9 341 7 503 -4z m2324 1 c22 -2 44 -10 51 -20 7 -10 17 -18 21
-18 4 0 2 6 -4 13 -12 15 -5 27 16 27 7 0 13 -7 13 -17 0 -9 11 -35 25 -58 13
-23 22 -45 18 -49 -3 -3 6 -15 20 -26 14 -11 29 -31 33 -43 4 -12 15 -34 26
-49 11 -16 16 -33 13 -38 -4 -6 2 -25 12 -43 10 -18 27 -59 37 -92 10 -33 22
-68 27 -77 12 -24 11 -78 -1 -78 -6 0 -10 -26 -10 -59 0 -33 -5 -63 -10 -66
-6 -4 -8 -16 -5 -27 4 -11 1 -27 -8 -36 -8 -9 -20 -34 -26 -54 -7 -21 -17 -40
-22 -43 -5 -4 -9 -15 -9 -26 0 -10 -7 -19 -15 -19 -8 0 -16 -4 -16 -10 -1 -5
-2 -15 -3 -20 -1 -14 -92 -65 -108 -62 -4 1 -12 -7 -18 -18 -8 -15 -17 -18
-39 -14 -16 4 -32 1 -35 -5 -4 -6 -20 -11 -36 -11 -16 0 -32 -4 -35 -10 -9
-14 -342 -13 -351 1 -4 7 -21 9 -45 5 -32 -5 -41 -3 -51 13 -9 15 -15 17 -26
9 -9 -8 -16 -8 -24 0 -7 7 -18 12 -25 12 -7 0 -22 8 -33 18 -11 9 -22 15 -25
12 -7 -10 -54 43 -48 54 3 6 2 8 -2 3 -10 -9 -55 31 -55 49 0 6 -7 14 -15 18
-8 3 -15 15 -15 26 0 11 -4 20 -10 20 -5 0 -10 11 -10 24 0 14 -5 28 -10 31
-6 4 -8 16 -4 27 4 14 2 18 -5 14 -7 -5 -11 2 -11 18 0 14 -4 26 -9 26 -8 0
-14 23 -27 113 -4 20 -10 37 -15 37 -4 0 -8 63 -8 139 -1 110 2 141 14 151 8
7 12 16 9 21 -3 5 4 22 15 38 12 16 21 35 21 43 0 8 20 31 45 51 40 34 46 36
52 20 6 -16 8 -15 13 6 6 27 44 43 97 42 17 -1 34 3 38 9 6 10 490 8 608 -2z
m-1398 -198 c3 -5 21 -10 39 -10 35 0 116 -60 116 -86 0 -8 5 -14 10 -14 6 0
10 -7 10 -16 0 -9 6 -30 14 -47 8 -18 17 -54 20 -82 12 -114 17 -151 23 -165
3 -8 5 -23 4 -33 -1 -9 5 -24 13 -32 8 -9 13 -22 10 -29 -3 -8 -1 -17 5 -21 6
-3 11 -19 11 -35 0 -16 4 -31 9 -35 5 -3 13 -19 16 -37 4 -17 18 -51 32 -75
13 -24 21 -48 18 -53 -3 -5 8 -19 25 -31 16 -13 30 -28 30 -33 0 -6 27 -38 60
-70 33 -32 58 -62 55 -66 -2 -3 6 -6 18 -6 12 1 21 -4 20 -10 -1 -7 10 -15 24
-19 15 -3 43 -19 64 -35 20 -16 39 -27 42 -24 3 3 19 -2 36 -10 16 -9 41 -16
54 -16 12 0 27 -4 33 -9 17 -16 96 -23 308 -28 137 -2 213 0 220 7 5 5 29 10
52 10 24 0 46 5 49 10 3 6 12 10 20 10 8 0 24 4 37 9 13 5 26 8 29 7 4 0 16 7
27 17 10 9 26 15 35 11 10 -3 20 2 27 15 6 12 15 21 21 21 5 0 22 11 37 25 15
14 31 25 35 25 5 0 30 24 57 53 73 77 78 84 82 104 5 26 32 22 36 -6 2 -13 12
-26 23 -28 10 -3 17 -9 14 -13 -3 -5 -1 -11 4 -15 6 -3 8 -12 4 -20 -3 -8 0
-15 6 -15 6 0 11 -8 11 -17 0 -9 7 -25 17 -35 15 -17 14 -18 -22 -18 -44 0
-39 -14 5 -16 44 -2 60 -11 60 -32 0 -11 7 -25 16 -33 10 -8 14 -23 12 -40 -3
-16 -1 -26 4 -23 4 3 13 -8 19 -23 6 -15 24 -55 40 -88 18 -37 29 -76 29 -101
0 -22 3 -43 6 -46 9 -9 8 -234 -1 -249 -5 -7 -8 -32 -6 -55 1 -23 -3 -45 -9
-49 -5 -3 -10 -19 -10 -36 0 -16 -5 -29 -11 -29 -7 0 -9 -10 -7 -25 4 -20 0
-25 -23 -30 -16 -4 -29 -11 -29 -16 0 -6 5 -7 10 -4 6 4 18 1 26 -6 14 -12 14
-14 -1 -25 -11 -8 -15 -20 -11 -30 4 -10 -1 -23 -13 -33 -11 -9 -34 -50 -51
-91 -18 -41 -36 -82 -41 -90 -5 -8 -15 -27 -22 -42 -11 -28 -27 -38 -27 -18 0
15 -20 12 -20 -2 -1 -7 -19 -25 -41 -41 -22 -15 -43 -35 -46 -45 -4 -9 -19
-29 -35 -44 -15 -14 -28 -35 -28 -46 0 -12 -17 -34 -37 -51 -41 -34 -53 -38
-53 -17 0 7 -9 16 -20 19 -24 6 -26 -5 -5 -23 26 -21 17 -37 -38 -69 -29 -17
-62 -40 -72 -51 -10 -11 -23 -20 -29 -20 -6 0 -22 -12 -35 -25 -13 -14 -27
-25 -32 -25 -4 0 -34 -18 -65 -40 -32 -22 -63 -40 -70 -40 -7 0 -22 -9 -32
-20 -10 -11 -48 -35 -83 -53 -93 -48 -183 -98 -194 -108 -5 -5 -18 -9 -30 -9
-12 0 -30 -7 -41 -15 -10 -8 -26 -15 -35 -15 -9 0 -22 -6 -28 -14 -6 -7 -37
-21 -69 -31 -31 -9 -66 -23 -77 -30 -20 -12 -69 -24 -115 -28 -14 -1 -28 -10
-32 -19 -4 -11 -18 -18 -33 -18 -14 0 -25 -5 -25 -10 0 -6 -17 -8 -42 -4 -29
4 -38 2 -29 -4 17 -12 7 -18 -44 -27 -22 -4 -44 -11 -50 -14 -30 -20 -91 -34
-280 -63 -91 -13 -96 -13 -190 1 -44 7 -100 15 -125 18 -25 3 -50 10 -57 15
-7 5 -17 7 -22 4 -5 -4 -12 -2 -16 4 -3 5 -19 10 -35 10 -16 0 -32 5 -35 10
-3 6 -16 10 -29 10 -12 0 -42 6 -67 14 -24 8 -66 21 -94 29 -75 24 -124 42
-131 50 -4 4 -14 7 -22 7 -9 0 -23 7 -33 16 -10 9 -37 20 -61 25 -24 6 -54 18
-68 27 -14 9 -30 17 -35 17 -18 1 -222 105 -235 120 -7 8 -19 15 -28 15 -8 0
-30 11 -48 25 -18 14 -36 25 -40 25 -4 0 -15 6 -23 13 -9 8 -32 20 -51 27 -32
12 -212 129 -275 177 -5 5 -22 16 -37 25 -14 10 -38 28 -52 40 -14 13 -37 32
-51 43 -46 35 -75 69 -75 87 0 19 -128 148 -147 148 -7 0 -10 6 -7 14 3 9 -3
17 -15 21 -12 3 -21 12 -21 19 0 20 -30 76 -41 76 -5 0 -9 7 -9 15 0 15 -3 23
-33 83 -9 19 -17 42 -17 53 0 10 -5 19 -11 19 -7 0 -9 9 -5 24 4 16 1 26 -9
30 -8 3 -15 16 -15 29 0 13 -3 27 -7 31 -4 3 -8 14 -10 24 -1 9 -8 42 -14 72
-20 92 -14 352 8 410 3 8 7 20 8 25 2 14 13 41 42 102 13 29 26 62 28 74 3 13
11 27 20 31 8 5 15 15 15 23 0 9 6 12 16 8 13 -5 15 -2 10 15 -7 22 28 97 75
161 13 18 23 37 21 42 -1 5 5 9 13 9 9 0 15 -9 16 -22 0 -21 1 -21 8 -4 5 12
10 16 14 9 4 -6 4 -18 1 -26 -3 -10 2 -18 16 -22 12 -4 19 -9 16 -13 -8 -7 24
-42 38 -42 6 0 28 -18 49 -40 20 -22 44 -40 53 -40 10 0 14 -5 10 -16 -3 -9
-2 -12 5 -9 6 4 17 -1 24 -11 8 -11 15 -15 15 -10 0 5 7 3 15 -4 8 -7 15 -9
15 -6 0 4 13 -2 29 -13 16 -12 36 -18 45 -15 10 4 18 0 22 -10 5 -13 14 -15
34 -11 16 3 31 1 35 -4 3 -6 26 -11 50 -11 24 0 47 -4 50 -10 4 -6 85 -10 210
-10 125 0 206 4 210 10 3 6 28 10 56 10 27 0 49 5 49 10 0 6 9 10 21 10 15 0
19 -4 15 -16 -5 -14 -4 -15 8 -5 8 7 12 19 9 27 -4 12 0 14 20 9 19 -5 28 -2
37 14 6 12 16 21 22 21 6 0 26 12 45 26 21 16 42 24 54 21 10 -3 16 -1 13 4
-6 11 46 70 57 63 6 -3 23 15 82 86 31 38 57 83 57 99 0 11 7 21 15 25 8 3 15
1 15 -4 0 -6 5 -10 10 -10 6 0 5 8 -2 21 -12 18 -10 23 17 45 17 14 22 22 13
18 -20 -7 -26 20 -8 31 6 3 10 20 10 36 0 16 6 32 13 34 6 3 13 24 15 47 1 23
8 45 14 49 6 4 8 19 5 37 -4 18 -1 37 7 48 8 11 12 34 10 55 -3 21 0 40 6 44
5 3 10 19 10 35 0 68 101 220 146 220 13 0 26 5 29 10 3 6 37 10 75 10 38 0
72 -4 75 -10z m-2098 -2650 c-3 -11 0 -20 6 -21 14 -1 97 -104 97 -119 0 -6
18 -29 40 -53 82 -86 180 -198 180 -207 0 -4 -7 -11 -16 -14 -8 -3 -12 -10 -9
-16 9 -15 25 -12 25 5 0 24 16 18 41 -15 13 -17 38 -37 54 -45 17 -8 39 -28
50 -45 11 -17 34 -36 50 -44 17 -8 50 -36 75 -61 25 -25 60 -53 78 -62 18 -8
42 -26 55 -39 12 -13 27 -24 34 -24 7 0 17 -9 23 -20 6 -11 20 -20 30 -20 11
0 20 -4 20 -10 0 -5 9 -10 20 -10 11 0 20 -7 20 -15 0 -8 6 -15 14 -15 16 0
98 -41 107 -53 3 -5 8 -8 10 -7 2 1 17 -3 32 -9 16 -6 31 -11 35 -11 4 0 18
-9 32 -20 14 -11 33 -20 43 -20 10 0 30 -8 44 -17 15 -10 31 -18 37 -18 6 -1
18 -4 26 -7 8 -3 35 -11 60 -18 25 -7 54 -19 65 -25 11 -7 34 -15 50 -18 17
-3 48 -10 70 -15 105 -25 102 -25 115 -2 9 17 8 26 -4 45 -26 40 3 41 38 2 17
-20 44 -39 59 -43 16 -4 31 -13 34 -20 3 -8 14 -14 24 -14 12 0 21 -10 25 -26
4 -16 9 -21 14 -14 10 16 55 -7 104 -52 21 -21 45 -38 53 -38 7 0 18 -9 25
-20 20 -31 84 -27 115 7 24 26 88 73 99 73 3 0 30 20 58 45 29 25 61 45 70 45
9 0 16 7 16 15 0 8 9 15 20 15 11 0 20 -5 20 -11 0 -5 5 -7 10 -4 6 4 8 10 5
15 -5 8 45 50 59 50 3 0 6 -15 6 -32 0 -47 14 -66 34 -49 9 7 27 11 40 9 15
-3 27 0 30 8 3 8 19 14 35 14 16 0 33 5 36 10 3 6 17 10 29 10 13 0 29 7 36
15 7 8 21 15 31 15 11 0 28 6 39 12 16 10 24 10 40 0 26 -16 29 -15 23 7 -4
15 3 20 31 25 20 4 36 11 36 16 0 6 8 10 18 10 21 0 119 47 128 61 3 5 16 6
28 3 18 -4 25 -1 29 15 3 13 13 21 25 21 11 0 33 10 49 23 15 12 40 28 56 35
15 6 27 16 27 22 0 5 5 10 12 10 6 0 26 11 44 25 18 14 36 25 41 25 4 0 14 9
20 19 12 19 37 35 101 66 17 8 32 22 32 30 0 8 6 15 14 15 17 0 336 315 336
332 0 7 16 29 35 48 71 71 103 110 110 129 3 11 17 29 31 40 13 10 24 26 24
35 0 9 5 16 10 16 6 0 10 -11 10 -24 0 -14 5 -28 11 -31 6 -4 7 -19 4 -36 -5
-21 -2 -31 9 -35 11 -4 16 -18 15 -48 0 -22 4 -63 11 -91 6 -27 14 -68 16 -90
3 -22 8 -47 11 -55 3 -8 5 -27 4 -43 -2 -15 3 -44 10 -65 7 -20 12 -47 10 -60
-1 -13 2 -28 7 -35 13 -15 21 -116 28 -314 5 -146 4 -153 -14 -153 -20 0 -169
-127 -165 -140 1 -4 -14 -22 -32 -40 -19 -19 -35 -39 -35 -46 0 -6 -21 -34
-47 -62 -78 -82 -127 -142 -135 -162 -4 -11 -11 -20 -15 -20 -5 0 -17 -16 -27
-35 -11 -19 -24 -35 -29 -35 -6 0 -54 -22 -106 -49 -53 -27 -101 -46 -108 -44
-6 2 -19 -7 -29 -22 -9 -14 -19 -23 -22 -21 -2 3 -17 -2 -31 -12 -14 -10 -47
-28 -73 -40 -26 -13 -50 -28 -54 -33 -3 -6 -16 -14 -27 -20 -33 -14 -59 -32
-80 -54 -18 -20 -18 -20 -11 5 4 13 17 33 30 43 13 10 24 24 24 31 0 7 16 27
35 46 19 19 35 39 35 45 0 7 32 42 71 80 56 54 73 66 80 54 8 -12 10 -12 8 1
-3 31 1 42 14 37 10 -4 13 2 9 20 -4 24 -3 25 22 19 l27 -7 -27 31 c-34 38
-58 38 -117 0 -26 -16 -47 -28 -47 -25 0 3 -15 -4 -32 -15 -18 -11 -42 -24
-53 -29 -12 -5 -27 -16 -34 -25 -7 -9 -20 -16 -27 -16 -8 0 -14 -4 -14 -10 0
-5 -7 -10 -15 -10 -8 0 -15 -7 -15 -15 0 -8 -6 -15 -14 -15 -8 0 -24 -12 -35
-27 -24 -30 -40 -24 -24 10 6 12 17 43 24 70 8 26 18 47 23 47 5 0 7 3 4 6 -7
6 42 108 75 156 12 18 39 50 59 71 20 21 35 44 32 51 -7 18 -45 28 -60 15 -8
-7 -14 -2 -18 16 -4 15 -11 23 -17 19 -8 -4 -7 -10 0 -17 15 -15 14 -27 -4
-27 -18 0 -57 -20 -67 -35 -4 -5 -8 -6 -8 -1 0 5 -6 3 -14 -3 -8 -6 -18 -11
-22 -9 -12 3 -154 -145 -154 -160 0 -7 -4 -12 -10 -12 -5 0 -10 -9 -10 -20 0
-11 -7 -23 -15 -26 -8 -4 -15 -12 -15 -20 0 -8 -6 -14 -13 -14 -9 0 -11 -12
-9 -41 3 -22 -1 -46 -7 -52 -7 -7 -11 -62 -11 -152 l0 -142 34 -28 c19 -16 32
-34 29 -42 -4 -10 3 -11 28 -6 l34 6 -35 -31 c-19 -18 -43 -35 -52 -38 -10 -3
-18 -10 -18 -15 0 -5 -12 -14 -27 -20 -15 -5 -42 -28 -61 -50 -18 -21 -40 -39
-47 -39 -7 0 -15 -3 -17 -7 -4 -10 -119 -116 -176 -163 -23 -19 -42 -39 -42
-45 -1 -19 -43 -61 -47 -47 -3 6 -10 12 -16 12 -8 0 -7 -4 1 -12 18 -18 15
-26 -10 -30 -15 -2 -24 -11 -26 -25 -4 -26 -12 -29 -30 -11 -8 8 -12 9 -12 1
0 -6 6 -13 12 -15 8 -3 -3 -18 -25 -37 -20 -18 -37 -38 -37 -44 0 -17 -62 -77
-79 -77 -14 0 -14 -1 -1 -10 12 -8 10 -14 -17 -35 -19 -16 -30 -31 -27 -40 4
-8 -1 -18 -10 -21 -9 -3 -16 -12 -16 -19 0 -7 -7 -19 -16 -26 -9 -7 -20 -22
-25 -34 -19 -41 -39 -70 -39 -57 0 7 -4 11 -10 7 -5 -3 -7 -12 -3 -20 8 -23
-16 -48 -33 -34 -8 6 -14 17 -14 24 0 7 -7 18 -15 25 -8 7 -15 18 -15 26 0 7
-10 24 -22 38 -36 38 -48 54 -48 64 0 5 -11 19 -25 32 -14 13 -25 29 -25 35 0
6 -11 22 -25 35 -14 13 -25 28 -25 33 0 5 -25 32 -55 60 -30 28 -55 55 -55 61
0 5 -69 79 -152 163 -84 85 -154 158 -156 163 -6 16 20 11 41 -7 19 -17 20
-17 9 3 -13 25 -45 40 -50 25 -7 -21 -30 -10 -78 35 -74 70 -79 74 -97 74 -8
0 -24 11 -35 25 -11 14 -26 25 -34 25 -8 0 -23 9 -33 20 -18 20 -17 20 11 20
33 0 101 60 90 78 -3 6 -2 13 4 17 14 9 13 252 -1 261 -6 3 -9 19 -5 35 4 22
2 29 -9 29 -8 0 -14 3 -13 8 4 13 -56 126 -79 150 -13 13 -23 27 -23 33 0 13
-52 58 -67 59 -7 0 -22 13 -34 29 -16 21 -39 34 -85 48 -47 13 -63 22 -59 32
4 11 2 11 -8 3 -8 -7 -17 -9 -20 -5 -9 9 -47 -27 -47 -44 0 -7 15 -22 33 -33
17 -11 28 -20 24 -20 -4 0 6 -20 23 -45 17 -25 28 -50 25 -55 -3 -6 0 -10 9
-10 15 0 66 -92 66 -119 0 -9 7 -29 15 -45 8 -15 15 -42 15 -58 0 -29 -1 -28
-56 31 -31 34 -62 61 -70 61 -8 0 -14 3 -14 8 0 4 -20 16 -45 27 -25 11 -45
23 -45 28 0 5 -7 7 -15 3 -8 -3 -15 -1 -15 4 0 6 -7 10 -15 10 -8 0 -15 5 -15
11 0 5 -8 9 -18 7 -11 -2 -26 3 -35 10 -20 17 -57 -1 -57 -28 0 -10 -4 -22
-10 -25 -18 -11 -11 -27 9 -20 14 4 26 -3 42 -26 20 -26 76 -86 110 -116 31
-28 106 -131 127 -175 2 -4 -11 -1 -29 6 -19 8 -35 19 -37 25 -2 6 -11 11 -21
11 -9 0 -23 9 -31 20 -9 12 -21 18 -32 14 -11 -3 -20 1 -24 10 -3 8 -40 31
-82 52 -42 20 -79 39 -82 43 -3 3 -12 7 -20 9 -8 1 -25 8 -37 14 -18 9 -20 14
-12 25 8 9 8 13 1 13 -6 0 -14 -4 -17 -10 -4 -6 -14 -4 -28 5 -12 8 -26 14
-31 14 -5 1 -10 15 -11 31 -4 42 -15 51 -15 12 0 -18 -4 -32 -10 -32 -5 0 -10
13 -10 28 0 23 -7 31 -40 46 -27 12 -40 24 -40 37 0 10 -4 19 -10 19 -5 0 -10
6 -10 14 0 8 -8 17 -17 20 -10 3 -27 20 -38 38 -28 45 -46 71 -75 108 -38 47
-195 210 -203 210 -4 0 -23 10 -42 23 l-35 22 0 82 c0 45 5 85 10 88 6 3 10
50 10 105 0 54 4 101 9 104 4 3 11 63 15 133 4 70 11 132 17 137 5 6 9 20 9
32 0 13 4 25 9 29 6 3 9 22 7 43 -1 20 4 48 11 62 7 14 13 33 13 42 0 9 4 19
8 22 5 3 7 18 4 34 -2 16 1 33 7 36 6 4 11 18 11 31 0 30 20 75 33 75 5 0 7
-9 4 -20z m-1395 -1432 c3 -7 27 -11 70 -9 39 1 69 -2 73 -8 3 -6 35 -11 70
-11 35 0 67 -4 70 -10 3 -5 30 -10 60 -10 30 0 56 -4 59 -9 3 -4 28 -6 55 -4
28 2 52 -1 56 -7 3 -5 24 -10 45 -10 21 0 42 -4 45 -10 3 -5 24 -10 45 -10 21
0 41 -4 44 -9 3 -4 37 -11 76 -15 38 -4 72 -11 75 -17 4 -5 21 -9 40 -9 19 0
36 -4 40 -9 3 -5 31 -12 63 -16 52 -6 79 -13 122 -35 9 -4 31 -11 50 -14 34
-7 65 -18 102 -37 10 -5 27 -9 39 -9 19 0 68 -18 111 -41 10 -5 26 -9 35 -9
10 0 27 -7 37 -15 11 -8 28 -15 38 -15 9 0 33 -9 53 -20 20 -11 41 -20 48 -20
7 0 26 -8 42 -17 93 -51 322 -163 333 -163 6 0 12 -3 12 -8 0 -7 6 -11 77 -46
21 -11 56 -33 78 -50 22 -17 54 -38 70 -46 17 -8 45 -27 63 -42 18 -16 39 -28
46 -28 7 0 21 -9 31 -20 10 -11 23 -20 30 -20 6 0 22 -12 36 -26 13 -14 32
-29 41 -33 10 -3 62 -48 117 -99 55 -50 103 -92 108 -92 11 0 183 -173 183
-184 0 -8 52 -69 121 -142 16 -17 29 -35 29 -39 0 -5 10 -19 21 -31 23 -24 41
-53 58 -91 6 -13 15 -23 21 -23 6 0 15 -10 21 -22 17 -37 53 -101 75 -133 26
-38 104 -198 104 -213 0 -7 5 -12 10 -12 6 0 10 -9 10 -20 0 -19 18 -59 31
-70 3 -3 7 -12 7 -20 1 -8 5 -33 9 -54 9 -42 33 -62 33 -27 0 12 5 30 10 41 6
11 15 29 20 40 6 11 10 27 10 35 0 9 11 36 25 61 14 25 25 49 25 55 0 19 32
83 53 107 11 12 16 22 11 22 -5 0 -4 4 1 8 6 4 21 30 35 57 14 28 29 53 33 56
10 7 26 35 56 94 11 22 29 47 40 55 12 8 21 19 21 25 0 6 16 26 35 45 19 19
35 38 35 44 0 22 265 296 379 391 39 33 91 77 115 98 24 20 47 37 52 37 5 1
20 14 34 30 13 17 29 30 36 30 6 0 18 7 25 16 7 9 22 20 34 25 33 15 59 33 73
52 7 9 17 15 22 12 4 -3 13 2 21 11 7 8 31 24 55 34 23 11 44 23 46 27 4 10
51 36 198 109 63 31 125 66 136 76 12 10 25 18 30 17 12 -3 94 34 94 43 0 4
17 10 38 14 20 4 49 15 64 25 14 11 35 19 45 19 11 0 28 7 39 15 10 8 27 15
37 15 9 0 25 4 35 9 23 13 54 24 72 27 8 1 44 12 79 23 35 12 72 21 82 21 10
0 20 4 24 10 3 5 12 7 19 4 8 -3 17 -1 21 5 3 6 17 11 31 11 13 0 32 4 42 9
29 15 87 31 110 31 12 0 22 5 22 10 0 6 15 10 34 10 19 0 38 5 41 10 3 6 21
10 40 10 19 0 36 4 39 9 3 4 16 6 30 4 13 -3 27 0 30 6 4 6 25 11 46 11 21 0
42 5 45 10 3 6 24 10 45 10 21 0 42 5 45 10 4 6 28 9 56 7 27 -2 52 0 55 4 3
5 29 9 59 9 30 0 57 5 60 10 3 6 33 10 65 10 32 0 62 5 65 11 4 6 30 10 59 8
28 -1 60 2 70 6 15 7 27 -1 57 -36 20 -24 37 -46 36 -49 -2 -8 87 -184 96
-191 7 -5 57 -97 57 -106 0 -2 -9 -3 -19 -3 -11 0 -22 -4 -25 -9 -3 -4 -69
-12 -146 -16 -77 -4 -142 -11 -146 -16 -3 -5 -29 -9 -59 -9 -30 0 -56 -4 -59
-9 -3 -4 -31 -11 -63 -14 -73 -8 -91 -11 -99 -20 -4 -4 -29 -7 -55 -7 -26 0
-51 -4 -54 -10 -3 -5 -24 -10 -45 -10 -21 0 -41 -4 -44 -9 -3 -4 -16 -6 -30
-4 -13 3 -27 0 -30 -6 -4 -6 -25 -11 -47 -11 -21 0 -39 -4 -39 -10 0 -5 -18
-10 -39 -10 -22 0 -42 -4 -45 -9 -4 -5 -29 -12 -58 -16 -29 -4 -60 -11 -70
-16 -10 -5 -27 -13 -38 -19 -11 -5 -29 -10 -39 -10 -11 0 -22 -4 -25 -9 -3 -4
-17 -6 -31 -3 -15 2 -25 0 -25 -7 0 -6 -11 -11 -24 -11 -14 0 -27 -4 -30 -9
-5 -7 -39 -18 -81 -25 -14 -3 -47 -16 -67 -27 -10 -5 -26 -9 -36 -9 -10 0 -27
-7 -38 -15 -10 -8 -27 -15 -37 -15 -11 0 -32 -9 -48 -21 -16 -11 -29 -17 -29
-13 0 5 -5 3 -12 -4 -7 -7 -22 -12 -35 -12 -13 0 -23 -3 -23 -8 0 -7 -73 -42
-88 -42 -14 0 -263 -128 -281 -144 -9 -8 -28 -18 -43 -21 -16 -4 -28 -11 -28
-15 0 -4 -8 -10 -17 -14 -10 -3 -33 -15 -50 -26 -78 -48 -99 -60 -118 -69 -12
-5 -27 -16 -34 -25 -7 -9 -17 -13 -22 -11 -4 3 -13 -4 -19 -15 -6 -11 -15 -20
-20 -20 -6 0 -33 -16 -60 -35 -27 -19 -53 -35 -58 -35 -4 0 -23 -16 -42 -35
-19 -19 -40 -35 -47 -35 -7 0 -20 -11 -29 -25 -9 -14 -19 -23 -24 -20 -4 2
-22 -11 -40 -30 -19 -19 -38 -35 -44 -35 -17 0 -143 -119 -359 -337 -50 -51
-94 -93 -99 -93 -4 0 -8 -6 -8 -13 0 -7 -16 -28 -35 -47 -19 -19 -35 -39 -35
-45 0 -6 -16 -26 -35 -45 -19 -19 -35 -38 -35 -43 0 -5 -10 -18 -22 -28 -21
-19 -37 -43 -57 -84 -5 -11 -21 -31 -36 -45 -14 -14 -34 -41 -43 -60 -9 -19
-24 -43 -33 -53 -15 -16 -17 -15 -34 28 -11 25 -23 45 -28 45 -4 0 -6 4 -3 8
3 5 -8 22 -24 37 -17 16 -30 34 -30 40 0 7 -9 20 -20 30 -11 10 -20 23 -20 28
0 9 -48 66 -111 133 -16 16 -29 34 -29 40 0 5 -45 54 -101 109 -55 55 -105
110 -110 123 -5 12 -19 26 -31 31 -13 5 -70 57 -128 115 -57 58 -110 106 -116
106 -7 0 -24 16 -40 35 -15 19 -33 35 -39 35 -6 0 -22 11 -35 25 -13 14 -29
25 -35 25 -6 0 -24 14 -41 31 -16 17 -38 35 -49 40 -33 15 -59 33 -80 57 -11
12 -25 22 -31 22 -6 0 -19 9 -29 20 -10 11 -21 17 -25 15 -4 -3 -14 2 -21 11
-12 15 -33 27 -132 81 -22 12 -43 25 -46 30 -7 11 -75 43 -90 43 -5 0 -14 6
-18 13 -7 13 -187 104 -278 142 -22 9 -48 21 -59 26 -10 6 -33 19 -51 29 -18
10 -35 16 -38 14 -2 -3 -20 3 -38 14 -28 15 -60 27 -99 37 -34 8 -128 40 -137
48 -7 5 -17 6 -22 3 -5 -4 -12 -2 -16 4 -3 5 -17 10 -31 10 -13 0 -24 5 -24
10 0 6 -11 10 -24 10 -14 0 -28 5 -31 10 -4 6 -11 8 -16 5 -5 -4 -18 1 -30 9
-12 8 -27 12 -34 10 -7 -3 -16 -1 -20 5 -3 6 -19 11 -35 11 -16 0 -32 4 -35
10 -3 5 -28 12 -56 16 -27 4 -52 11 -55 15 -3 5 -18 9 -34 9 -16 0 -32 5 -35
10 -3 6 -19 10 -35 10 -16 0 -32 5 -35 10 -4 6 -21 8 -40 4 -19 -3 -35 -1 -39
5 -4 6 -24 11 -45 11 -20 0 -41 4 -46 9 -9 8 -50 15 -140 25 -16 1 -37 6 -45
9 -14 5 -41 10 -150 23 -25 3 -49 10 -55 15 -5 5 -37 9 -70 9 -34 0 -65 3 -68
7 -4 3 -36 5 -71 4 -37 -1 -67 2 -71 8 -3 6 -20 11 -36 11 -27 0 -30 3 -24 23
4 12 15 31 25 42 9 11 26 41 38 66 11 25 27 51 36 58 9 8 16 24 16 37 0 12 5
26 11 30 6 3 21 27 33 53 39 83 59 106 68 79z m993 -1548 c4 -7 55 -10 136 -9
72 0 133 -2 136 -5 4 -3 37 -6 74 -6 37 0 71 -4 74 -10 3 -5 33 -10 66 -10 33
0 59 -4 59 -10 0 -5 22 -10 48 -10 27 0 52 -3 56 -7 4 -4 22 -6 41 -5 18 2 36
-1 40 -7 3 -6 19 -11 35 -11 16 0 32 -4 35 -10 3 -5 19 -10 35 -10 16 0 32 -5
35 -10 3 -6 17 -7 30 -4 12 3 26 1 29 -5 4 -6 20 -11 36 -11 16 0 32 -4 35
-10 3 -5 17 -10 31 -10 13 0 24 -5 24 -11 0 -6 7 -8 15 -5 9 3 25 1 35 -4 11
-6 29 -14 40 -20 11 -5 29 -10 39 -10 11 0 22 -4 25 -9 3 -4 18 -11 33 -14 16
-3 66 -26 112 -51 47 -25 90 -46 97 -46 7 0 34 -11 61 -24 26 -14 66 -32 88
-42 22 -10 42 -20 45 -23 7 -9 41 -28 80 -48 19 -9 37 -20 40 -23 3 -4 12 -10
20 -14 31 -14 61 -33 80 -51 11 -10 20 -15 20 -10 0 4 24 -13 54 -39 30 -25
58 -46 62 -46 7 0 25 -15 151 -126 29 -26 50 -50 47 -55 -5 -9 -3894 -13
-3894 -5 0 2 -3 11 -6 20 -4 10 -1 16 9 16 9 0 30 31 52 75 20 41 40 77 45 80
6 4 10 19 10 35 0 16 4 31 9 34 8 5 16 40 25 103 1 13 6 26 9 30 12 11 8 41
-5 46 -10 3 -10 9 0 26 7 12 10 27 6 33 -4 6 -7 38 -6 70 0 31 -3 60 -9 63 -5
4 -9 15 -9 27 0 11 -9 33 -21 49 -11 16 -18 33 -15 38 3 4 -3 19 -14 31 -11
13 -20 26 -20 30 0 10 276 20 547 20 144 0 234 4 238 10 9 14 842 14 850 0z
m5700 0 c4 -7 110 -10 302 -10 162 1 298 -1 301 -4 3 -3 47 -6 99 -6 106 0
119 -9 84 -59 -12 -16 -21 -36 -21 -44 0 -8 -7 -28 -15 -43 -8 -16 -15 -41
-15 -56 0 -16 -4 -28 -10 -28 -13 0 -14 -212 -1 -226 5 -5 12 -31 15 -59 3
-27 7 -57 9 -65 11 -40 20 -60 27 -60 4 0 15 -17 26 -37 10 -21 34 -59 51 -85
33 -47 33 -48 10 -53 -12 -3 -890 -4 -1952 -3 -1700 3 -1930 5 -1930 18 0 8
11 20 26 27 14 7 53 42 88 78 34 36 69 65 77 65 8 0 14 4 14 10 0 5 17 17 38
26 20 10 48 27 62 40 28 25 78 55 133 81 20 10 37 21 37 25 0 7 229 122 245
123 15 0 89 38 96 48 4 5 13 7 20 5 8 -3 36 8 63 24 27 16 62 32 78 35 15 3
31 10 34 14 3 5 14 9 25 9 10 0 27 4 37 9 30 16 56 24 74 22 9 -1 19 3 23 9 3
5 17 10 31 10 13 0 32 4 42 9 52 27 72 33 86 28 8 -3 18 -2 21 3 4 6 19 10 35
10 16 0 32 5 35 10 3 6 19 10 35 10 16 0 32 5 35 11 4 6 22 9 40 7 19 -1 37 1
41 5 4 4 20 7 35 7 15 0 31 5 34 10 3 6 34 10 69 10 34 0 66 4 72 9 11 12 138
20 321 20 88 0 144 4 148 10 9 15 761 15 770 1z m-6384 -1086 c107 -42 186
-133 210 -242 6 -29 9 -55 7 -57 -2 -2 -43 -5 -93 -6 l-89 -2 -18 53 c-31 91
-74 120 -176 120 -140 0 -201 -119 -190 -366 10 -207 63 -284 197 -284 94 0
143 34 167 117 l16 54 91 -3 92 -3 -3 -44 c-5 -85 -78 -188 -169 -238 -38 -21
-139 -43 -200 -43 -109 0 -224 50 -287 126 -91 110 -128 316 -92 507 33 172
142 296 290 327 59 13 195 4 247 -16z m841 -109 c62 -159 296 -789 301 -809 2
-10 -191 -11 -202 -1 -3 4 -19 46 -36 93 l-30 87 -169 0 -169 0 -29 -90 c-16
-49 -31 -91 -33 -93 -5 -5 -196 -4 -201 1 -2 2 36 112 85 243 49 131 126 338
171 459 45 121 84 224 87 228 2 4 44 6 91 5 l87 -3 47 -120z m893 104 c70 -23
139 -73 172 -125 108 -169 31 -387 -157 -445 -19 -6 -98 -14 -175 -18 l-140
-6 -5 -163 -5 -164 -82 1 c-46 0 -90 0 -98 1 -13 0 -15 58 -15 463 0 255 3
467 8 471 13 13 453 0 497 -15z m483 9 c9 -11 80 -163 162 -345 13 -29 28 -53
34 -53 6 1 52 92 102 203 l91 202 102 3 c82 2 101 0 101 -12 0 -8 -20 -52 -43
-98 -24 -45 -92 -176 -150 -290 l-107 -206 0 -166 c0 -104 -4 -166 -10 -166
-5 -1 -46 -1 -90 -1 -44 0 -84 0 -90 1 -6 0 -10 64 -10 171 l0 171 -107 206
c-58 114 -126 244 -150 290 -23 45 -43 87 -43 92 0 15 195 13 208 -2z m880
-385 l2 -393 203 -2 202 -3 3 -72 c2 -46 -1 -73 -8 -73 -172 -3 -583 1 -590 5
-11 7 -14 892 -4 920 5 13 21 15 98 13 l91 -3 3 -392z m730 -75 c1 -258 -1
-468 -5 -468 -5 -1 -48 -1 -98 -2 l-90 -1 -3 459 c-1 252 0 465 3 472 3 9 29
12 97 10 l93 -3 3 -467z m602 462 c36 -6 93 -24 128 -41 52 -25 67 -39 92 -82
25 -44 30 -63 30 -120 0 -83 -17 -124 -74 -174 -24 -20 -36 -37 -29 -40 36
-13 81 -54 102 -92 19 -35 24 -57 23 -115 -1 -117 -40 -183 -137 -234 -49 -26
-54 -27 -298 -32 -137 -3 -251 -3 -253 -1 -2 2 -4 215 -4 473 l0 468 178 0
c97 0 206 -5 242 -10z m910 -10 c105 -37 159 -84 190 -166 47 -126 5 -271 -95
-332 -25 -15 -45 -33 -45 -40 0 -7 20 -50 44 -95 129 -242 147 -278 143 -285
-3 -4 -51 -5 -107 -2 l-101 5 -80 155 c-44 85 -85 160 -91 167 -8 10 -32 13
-82 11 l-71 -3 -5 -168 -5 -168 -90 -1 -90 -1 -3 473 -2 472 227 -4 c143 -3
241 -10 263 -18z m560 -448 c0 -258 -2 -471 -4 -473 -2 -2 -45 -3 -95 -1 l-91
3 -2 460 c-2 281 1 464 7 470 5 5 49 9 97 9 l88 0 0 -468z m663 413 c10 -27
23 -59 27 -70 11 -24 208 -552 257 -685 52 -140 56 -132 -60 -132 -55 0 -100
2 -101 4 -1 2 -16 44 -32 93 l-30 90 -169 0 -170 0 -29 -92 -30 -92 -95 -3
c-53 -2 -100 0 -105 4 -5 4 0 30 12 60 11 29 50 132 85 228 36 96 102 273 146
392 45 119 81 221 81 226 0 25 28 33 109 30 l85 -3 19 -50z"/>
<path d="M4022 8140 c-6 -11 -30 -29 -52 -40 -27 -14 -53 -40 -80 -82 -38 -59
-40 -66 -40 -140 0 -94 19 -139 87 -210 29 -29 44 -52 40 -62 -4 -10 -1 -13 9
-9 8 3 23 -2 34 -12 14 -12 29 -16 57 -12 78 11 101 22 148 75 30 33 53 51 62
48 11 -4 13 -1 8 15 -4 12 -3 31 3 43 5 11 15 32 21 46 12 25 10 84 -2 97 -4
3 -7 19 -7 35 0 40 -107 178 -138 178 -7 0 -15 6 -17 13 -3 6 -17 13 -32 14
-15 0 -29 6 -31 12 -6 19 -56 12 -70 -9z"/>
<path d="M6065 8118 c-37 -28 -95 -90 -95 -102 0 -4 -12 -17 -26 -28 -18 -14
-24 -28 -22 -47 1 -14 -1 -32 -6 -39 -13 -21 -13 -94 -1 -127 7 -16 13 -34 15
-40 9 -31 16 -43 47 -72 18 -18 33 -37 33 -43 0 -5 7 -10 15 -10 8 0 30 -9 50
-20 20 -11 53 -20 73 -20 39 0 92 19 92 33 0 4 6 7 13 7 12 0 57 51 57 65 0 4
11 21 25 39 14 18 25 42 25 54 0 11 5 24 10 27 17 11 11 127 -10 184 -19 52
-72 121 -94 121 -5 0 -17 7 -26 15 -10 9 -44 18 -81 21 -56 4 -68 2 -94 -18z"/>
<path d="M4590 6663 c-33 -6 -47 -19 -66 -59 -15 -31 -15 -37 -1 -67 24 -51
62 -82 147 -122 19 -9 43 -21 52 -26 10 -5 51 -9 91 -9 67 0 75 2 100 28 26
27 37 72 17 72 -5 0 -10 6 -10 14 0 7 -26 36 -57 65 -87 78 -92 81 -112 81
-11 0 -23 5 -26 11 -4 6 -13 8 -21 5 -7 -3 -16 -1 -19 4 -6 10 -49 11 -95 3z"/>
<path d="M5550 6661 c-8 -6 -18 -7 -23 -4 -13 8 -110 -44 -142 -77 -16 -16
-34 -30 -39 -30 -19 -1 -56 -70 -56 -105 0 -28 6 -36 32 -49 35 -18 173 -22
183 -6 3 6 16 10 27 10 12 0 36 11 54 25 18 14 37 25 41 25 13 0 67 60 82 92
14 28 13 33 -17 83 -24 39 -104 59 -142 36z"/>
<path d="M5063 6054 c-13 -14 -23 -33 -23 -43 0 -9 -4 -21 -10 -27 -6 -6 -11
-150 -12 -369 l-3 -360 -35 -3 c-19 -2 -41 -9 -49 -15 -11 -9 -15 -9 -18 1 -3
7 -24 12 -58 12 -30 0 -57 5 -60 10 -3 6 -17 10 -30 10 -24 0 -133 54 -190 94
-16 11 -34 21 -40 21 -5 0 -11 10 -13 22 -3 23 -32 54 -32 34 0 -6 5 -11 10
-11 6 0 10 -7 10 -15 0 -22 -21 -18 -27 4 -3 12 -17 21 -39 26 -19 3 -34 9
-34 14 0 4 -12 13 -26 19 -20 10 -24 17 -19 35 4 16 4 18 -3 8 -8 -11 -14 -11
-38 1 -16 7 -37 12 -46 10 -22 -4 -36 -51 -18 -62 7 -4 9 -13 6 -19 -4 -6 -4
-17 1 -23 4 -7 8 -18 8 -24 0 -5 17 -25 38 -43 21 -19 35 -36 32 -39 -6 -6 28
-44 105 -119 46 -45 53 -50 136 -94 27 -14 63 -34 79 -43 17 -9 42 -16 57 -16
15 0 30 -4 33 -10 3 -5 19 -10 35 -10 16 0 32 -4 35 -10 3 -5 39 -10 80 -10
41 0 77 5 80 10 3 6 15 10 26 10 11 0 39 11 63 24 44 24 61 23 94 -11 7 -7 22
-13 32 -13 10 0 22 -4 25 -10 3 -6 49 -10 103 -10 79 0 103 4 130 20 18 11 43
20 56 20 13 0 44 11 69 24 25 14 48 22 51 19 3 -3 8 1 12 10 8 22 59 47 73 36
6 -5 9 -6 6 -2 -3 3 26 41 65 82 111 120 121 133 133 160 6 14 18 34 26 44 25
30 41 88 30 109 -14 25 -34 23 -84 -12 -24 -16 -48 -30 -54 -30 -6 0 -16 -9
-23 -20 -7 -11 -21 -20 -30 -20 -10 0 -18 -4 -18 -9 0 -5 -13 -12 -29 -16 -15
-3 -41 -19 -56 -35 -16 -17 -34 -30 -41 -30 -6 0 -17 -7 -24 -15 -19 -23 -128
-72 -190 -85 -30 -7 -65 -16 -78 -21 -34 -13 -75 -11 -110 7 l-32 15 -2 322
c0 177 0 332 1 344 1 12 -3 24 -9 28 -5 3 -10 23 -10 44 0 74 -81 108 -127 55z"/>
<path d="M2685 1118 c-2 -7 -24 -75 -49 -150 -25 -75 -46 -144 -46 -152 0 -14
17 -16 111 -16 83 0 110 3 107 13 -17 67 -105 317 -111 317 -4 0 -9 -6 -12
-12z"/>
<path d="M3422 1083 l3 -148 116 0 c93 0 121 4 142 18 42 27 61 64 61 121 1
63 -18 103 -63 133 -30 21 -46 23 -148 23 l-114 0 3 -147z"/>
<path d="M6197 1223 c-13 -12 -8 -210 6 -219 11 -9 65 -11 164 -6 52 3 98 39
106 84 10 55 -5 100 -42 125 -30 20 -47 23 -131 23 -53 0 -100 -3 -103 -7z"/>
<path d="M6192 728 l3 -123 103 -3 c78 -2 111 1 136 13 73 35 88 152 26 208
-30 26 -33 27 -150 27 l-121 0 3 -122z"/>
<path d="M7034 1217 c-2 -7 -3 -69 -2 -138 l3 -124 118 0 119 0 34 37 c29 33
34 45 34 88 0 62 -21 105 -63 130 -26 16 -50 20 -135 20 -75 0 -104 -3 -108
-13z"/>
<path d="M8435 1128 c-2 -7 -25 -78 -51 -158 -26 -80 -49 -151 -51 -157 -4
-10 22 -13 112 -13 108 0 117 1 110 18 -16 40 -95 290 -95 300 0 17 -20 25
-25 10z"/>
</g>
</svg>
