<?xml version="1.0" encoding="UTF-8"?>
<!DOCTYPE svg PUBLIC "-//W3C//DTD SVG 1.1//EN" "http://www.w3.org/Graphics/SVG/1.1/DTD/svg11.dtd">
<svg xmlns="http://www.w3.org/2000/svg" version="1.1" width="1024px" height="1024px" style="shape-rendering:geometricPrecision; text-rendering:geometricPrecision; image-rendering:optimizeQuality; fill-rule:evenodd; clip-rule:evenodd" xmlns:xlink="http://www.w3.org/1999/xlink">
<g><path style="opacity:1" fill="#000000" d="M -0.5,-0.5 C 340.833,-0.5 682.167,-0.5 1023.5,-0.5C 1023.5,340.833 1023.5,682.167 1023.5,1023.5C 682.167,1023.5 340.833,1023.5 -0.5,1023.5C -0.5,682.167 -0.5,340.833 -0.5,-0.5 Z"/></g>
<g><path style="opacity:1" fill="#6a87a2" d="M 632.5,242.5 C 633.134,248.496 633.3,254.496 633,260.5C 631.398,262.263 630.898,264.096 631.5,266C 630.5,266.333 629.5,266.667 628.5,267C 627.167,267.667 627.167,268.333 628.5,269C 627.3,270.031 625.966,270.865 624.5,271.5C 623.833,271.167 623.167,270.833 622.5,270.5C 623.393,267.916 623.726,265.249 623.5,262.5C 628.726,250.301 625.226,241.968 613,237.5C 603.742,240.314 596.742,245.981 592,254.5C 588.834,259.804 587.167,265.471 587,271.5C 591.935,275.245 595.435,279.911 597.5,285.5C 598.5,285.5 599.5,285.5 600.5,285.5C 600.777,288.448 600.444,291.281 599.5,294C 583.469,294.816 570.136,294.649 559.5,293.5C 559.5,291.833 559.5,290.167 559.5,288.5C 570.167,288.5 580.833,288.5 591.5,288.5C 591.5,287.5 591.5,286.5 591.5,285.5C 589.063,285.756 586.729,286.423 584.5,287.5C 582.731,285.443 580.731,283.61 578.5,282C 578.957,281.586 579.291,281.086 579.5,280.5C 578.311,279.571 576.978,279.238 575.5,279.5C 575.5,282.167 575.5,284.833 575.5,287.5C 567.5,287.5 559.5,287.5 551.5,287.5C 551.5,286.167 551.5,284.833 551.5,283.5C 547.936,280.921 543.936,278.921 539.5,277.5C 535.593,278.811 531.593,279.478 527.5,279.5C 527.5,280.5 527.5,281.5 527.5,282.5C 525.213,282.724 523.047,283.391 521,284.5C 520.228,284.355 519.561,284.022 519,283.5C 517.011,285.839 514.511,287.173 511.5,287.5C 511.5,288.5 511.5,289.5 511.5,290.5C 508.833,291.167 506.167,291.833 503.5,292.5C 503.5,293.5 503.5,294.5 503.5,295.5C 500.833,295.5 498.167,295.5 495.5,295.5C 495.82,298.898 495.487,302.232 494.5,305.5C 489.262,305.394 486.429,302.728 486,297.5C 485.798,299.256 485.298,300.922 484.5,302.5C 482.929,301.691 481.262,301.357 479.5,301.5C 479.5,300.5 479.5,299.5 479.5,298.5C 473.995,296.76 468.328,295.593 462.5,295C 452.172,294.5 441.839,294.334 431.5,294.5C 431.5,292.167 431.5,289.833 431.5,287.5C 427.364,287.285 426.364,285.785 428.5,283C 428.011,281.862 427.678,280.695 427.5,279.5C 429.316,276.21 431.816,273.544 435,271.5C 434.865,269.575 434.698,267.575 434.5,265.5C 434.472,263.418 435.139,261.584 436.5,260C 435.398,257.599 435.231,255.099 436,252.5C 437.356,251.62 438.856,251.286 440.5,251.5C 440.688,257.999 440.688,264.666 440.5,271.5C 442.5,271.5 444.5,271.5 446.5,271.5C 445.852,266.172 445.685,260.838 446,255.5C 446.383,254.944 446.883,254.611 447.5,254.5C 448.156,255.278 448.989,255.944 450,256.5C 462.328,251.391 475.161,248.558 488.5,248C 491.589,239.644 495.589,232.977 500.5,228C 502.134,227.506 503.801,227.34 505.5,227.5C 506.723,233.284 509.057,238.617 512.5,243.5C 516.973,238.886 522.306,235.552 528.5,233.5C 529.535,239.083 531.201,244.417 533.5,249.5C 541.552,248.337 549.552,248.837 557.5,251C 562.138,253.569 566.972,255.735 572,257.5C 572.95,256.978 573.784,256.311 574.5,255.5C 580.557,238.288 592.724,228.622 611,226.5C 614.564,227.079 618.064,227.913 621.5,229C 623.762,231.931 626.595,234.097 630,235.5C 631.411,237.65 632.245,239.984 632.5,242.5 Z"/></g>
<g><path style="opacity:1" fill="#030407" d="M 623.5,262.5 C 621.705,265.404 619.872,268.404 618,271.5C 612.556,276.791 606.723,281.457 600.5,285.5C 599.5,285.5 598.5,285.5 597.5,285.5C 595.435,279.911 591.935,275.245 587,271.5C 587.167,265.471 588.834,259.804 592,254.5C 596.742,245.981 603.742,240.314 613,237.5C 625.226,241.968 628.726,250.301 623.5,262.5 Z"/></g>
<g><path style="opacity:1" fill="#69839c" d="M 447.5,254.5 C 446.883,254.611 446.383,254.944 446,255.5C 445.685,260.838 445.852,266.172 446.5,271.5C 444.5,271.5 442.5,271.5 440.5,271.5C 440.688,264.666 440.688,257.999 440.5,251.5C 438.856,251.286 437.356,251.62 436,252.5C 435.231,255.099 435.398,257.599 436.5,260C 435.139,261.584 434.472,263.418 434.5,265.5C 431.373,256.745 426.373,249.245 419.5,243C 414.721,239.1 409.388,237.934 403.5,239.5C 397.041,246.125 395.707,253.792 399.5,262.5C 401.383,266.418 403.883,269.752 407,272.5C 407.309,273.766 407.809,274.933 408.5,276C 413.339,278.282 417.839,281.115 422,284.5C 423.991,283.009 425.825,281.342 427.5,279.5C 427.678,280.695 428.011,281.862 428.5,283C 426.364,285.785 427.364,287.285 431.5,287.5C 431.5,289.833 431.5,292.167 431.5,294.5C 441.839,294.334 452.172,294.5 462.5,295C 468.328,295.593 473.995,296.76 479.5,298.5C 479.5,299.5 479.5,300.5 479.5,301.5C 481.262,301.357 482.929,301.691 484.5,302.5C 485.298,300.922 485.798,299.256 486,297.5C 486.429,302.728 489.262,305.394 494.5,305.5C 495.487,302.232 495.82,298.898 495.5,295.5C 498.167,295.5 500.833,295.5 503.5,295.5C 503.5,294.5 503.5,293.5 503.5,292.5C 506.167,291.833 508.833,291.167 511.5,290.5C 511.5,289.5 511.5,288.5 511.5,287.5C 514.511,287.173 517.011,285.839 519,283.5C 519.561,284.022 520.228,284.355 521,284.5C 523.047,283.391 525.213,282.724 527.5,282.5C 527.5,281.5 527.5,280.5 527.5,279.5C 531.593,279.478 535.593,278.811 539.5,277.5C 543.936,278.921 547.936,280.921 551.5,283.5C 551.5,284.833 551.5,286.167 551.5,287.5C 559.5,287.5 567.5,287.5 575.5,287.5C 575.5,284.833 575.5,282.167 575.5,279.5C 576.978,279.238 578.311,279.571 579.5,280.5C 579.291,281.086 578.957,281.586 578.5,282C 580.731,283.61 582.731,285.443 584.5,287.5C 586.729,286.423 589.063,285.756 591.5,285.5C 591.5,286.5 591.5,287.5 591.5,288.5C 580.833,288.5 570.167,288.5 559.5,288.5C 559.5,290.167 559.5,291.833 559.5,293.5C 570.136,294.649 583.469,294.816 599.5,294C 600.444,291.281 600.777,288.448 600.5,285.5C 606.723,281.457 612.556,276.791 618,271.5C 619.872,268.404 621.705,265.404 623.5,262.5C 623.726,265.249 623.393,267.916 622.5,270.5C 623.167,270.833 623.833,271.167 624.5,271.5C 625.966,270.865 627.3,270.031 628.5,269C 627.167,268.333 627.167,267.667 628.5,267C 629.5,266.667 630.5,266.333 631.5,266C 630.898,264.096 631.398,262.263 633,260.5C 633.3,254.496 633.134,248.496 632.5,242.5C 637.007,252.398 636.173,262.065 630,271.5C 625.958,275.379 621.792,279.046 617.5,282.5C 612.63,285.635 607.463,286.968 602,286.5C 601.865,288.922 602.365,291.255 603.5,293.5C 590.365,295.16 577.031,296.16 563.5,296.5C 559.647,297.166 555.647,297.833 551.5,298.5C 544.37,301.732 537.203,304.732 530,307.5C 520.314,304.905 510.48,304.072 500.5,305C 497.532,306.257 494.532,307.424 491.5,308.5C 486.538,305.58 481.538,302.747 476.5,300C 470.269,298.214 463.936,297.048 457.5,296.5C 444.301,296.16 431.301,295.16 418.5,293.5C 418.962,291.243 419.962,289.243 421.5,287.5C 397.5,283.857 386,269.857 387,245.5C 389.491,236.679 394.991,230.846 403.5,228C 425.165,225.542 439.832,234.376 447.5,254.5 Z"/></g>
<g><path style="opacity:1" fill="#020406" d="M 434.5,265.5 C 434.698,267.575 434.865,269.575 435,271.5C 431.816,273.544 429.316,276.21 427.5,279.5C 425.825,281.342 423.991,283.009 422,284.5C 417.839,281.115 413.339,278.282 408.5,276C 407.809,274.933 407.309,273.766 407,272.5C 403.883,269.752 401.383,266.418 399.5,262.5C 395.707,253.792 397.041,246.125 403.5,239.5C 409.388,237.934 414.721,239.1 419.5,243C 426.373,249.245 431.373,256.745 434.5,265.5 Z"/></g>
<g><path style="opacity:1" fill="#6a88a5" d="M 403.5,239.5 C 402.167,239.5 400.833,239.5 399.5,239.5C 394.011,246.399 393.011,254.066 396.5,262.5C 394.531,267.749 392.364,267.749 390,262.5C 386.69,248.135 391.356,237.468 404,230.5C 404.333,230.833 404.667,231.167 405,231.5C 409.271,229.504 413.771,229.004 418.5,230C 422.39,232.947 426.723,234.78 431.5,235.5C 431.5,236.833 431.5,238.167 431.5,239.5C 432.833,239.5 434.167,239.5 435.5,239.5C 434.79,242.86 436.124,244.693 439.5,245C 442.587,248.882 441.587,250.716 436.5,250.5C 437.093,247.404 436.093,245.071 433.5,243.5C 431.783,244.668 431.116,246.335 431.5,248.5C 430.448,248.649 429.448,248.483 428.5,248C 425.465,242.634 420.799,239.467 414.5,238.5C 415.506,237.604 415.506,236.938 414.5,236.5C 411.167,237.833 407.833,237.833 404.5,236.5C 403.614,237.325 403.281,238.325 403.5,239.5 Z"/></g>
<g><path style="opacity:1" fill="#32404d" d="M 418.5,293.5 C 431.301,295.16 444.301,296.16 457.5,296.5C 444.167,296.5 430.833,296.5 417.5,296.5C 417.263,295.209 417.596,294.209 418.5,293.5 Z"/></g>
<g><path style="opacity:1" fill="#3d4a59" d="M 603.5,293.5 C 604.404,294.209 604.737,295.209 604.5,296.5C 590.833,296.5 577.167,296.5 563.5,296.5C 577.031,296.16 590.365,295.16 603.5,293.5 Z"/></g>
<g><path style="opacity:1" fill="#627488" d="M 415.5,319.5 C 414.958,324.705 413.624,330.038 411.5,335.5C 410.5,335.5 409.5,335.5 408.5,335.5C 408.169,342.863 408.503,350.197 409.5,357.5C 412.002,360.334 413.335,363.667 413.5,367.5C 402.41,351.182 403.076,335.182 415.5,319.5 Z"/></g>
<g><path style="opacity:1" fill="#6a86a2" d="M 413.5,367.5 C 413.335,363.667 412.002,360.334 409.5,357.5C 408.503,350.197 408.169,342.863 408.5,335.5C 409.5,335.5 410.5,335.5 411.5,335.5C 413.624,330.038 414.958,324.705 415.5,319.5C 416.172,316.658 417.506,314.158 419.5,312C 437.325,309.468 454.991,310.134 472.5,314C 474.884,316.992 477.05,320.158 479,323.5C 479.667,331.167 479.667,338.833 479,346.5C 476.079,354.002 472.912,361.336 469.5,368.5C 465.347,370.737 461.014,372.904 456.5,375C 446.167,377 435.833,377 425.5,375C 420.626,373.738 416.626,371.238 413.5,367.5 Z"/></g>
<g><path style="opacity:1" fill="#0e1011" d="M 443.5,351.5 C 435.972,344.021 434.806,335.687 440,326.5C 441.965,324.45 444.132,322.783 446.5,321.5C 447.265,321.077 448.098,320.743 449,320.5C 451.476,322.655 454.309,324.155 457.5,325C 465.86,334.55 465.194,343.55 455.5,352C 451.398,354.011 447.398,353.845 443.5,351.5 Z"/></g>
<g><path style="opacity:1" fill="#e4eaeb" d="M 448.5,330.5 C 450.971,330.233 452.638,331.233 453.5,333.5C 452.187,336.725 449.853,337.891 446.5,337C 445.978,336.439 445.645,335.772 445.5,335C 446.315,333.357 447.315,331.857 448.5,330.5 Z"/></g>
<g><path style="opacity:1" fill="#f4f7f7" d="M 446.5,321.5 C 444.132,322.783 441.965,324.45 440,326.5C 434.806,335.687 435.972,344.021 443.5,351.5C 443.189,352.478 442.522,353.145 441.5,353.5C 428.502,350.182 423.002,341.849 425,328.5C 426.302,324.726 428.469,321.559 431.5,319C 435.351,318.46 439.185,318.626 443,319.5C 444.681,319.608 445.848,320.275 446.5,321.5 Z"/></g>
<g><path style="opacity:1" fill="#676d72" d="M 390.5,342.5 C 391.794,344.048 392.461,346.048 392.5,348.5C 392.167,350.5 391.833,352.5 391.5,354.5C 390.509,350.555 390.176,346.555 390.5,342.5 Z"/></g>
<g><path style="opacity:1" fill="#69849f" d="M 561.5,310.5 C 572.838,310.333 584.172,310.5 595.5,311C 598.426,311.218 601.26,311.718 604,312.5C 610.248,322.243 614.748,332.743 617.5,344C 616.852,348.536 616.019,353.036 615,357.5C 612.096,360.642 610.262,364.309 609.5,368.5C 605.704,370.135 602.038,372.135 598.5,374.5C 558.033,383.204 539.533,366.871 543,325.5C 544.318,322.523 545.818,319.69 547.5,317C 551.677,313.562 556.344,311.396 561.5,310.5 Z"/></g>
<g><path style="opacity:1" fill="#0b0d0e" d="M 577.5,322.5 C 585.146,326.492 587.646,332.825 585,341.5C 584.434,343.723 583.6,345.723 582.5,347.5C 578.393,353.521 573.059,354.854 566.5,351.5C 563.939,349.906 561.772,347.906 560,345.5C 557.297,336.334 559.797,329.167 567.5,324C 570.688,322.684 574.022,322.184 577.5,322.5 Z"/></g>
<g><path style="opacity:1" fill="#eef0f0" d="M 570.5,330.5 C 576.113,329.079 578.28,331.079 577,336.5C 571.322,338.662 569.156,336.662 570.5,330.5 Z"/></g>
<g><path style="opacity:1" fill="#f2f5f6" d="M 582.5,347.5 C 583.6,345.723 584.434,343.723 585,341.5C 587.646,332.825 585.146,326.492 577.5,322.5C 576.737,321.732 575.737,321.232 574.5,321C 579.152,318.34 584.152,317.34 589.5,318C 601.002,328.009 601.336,338.342 590.5,349C 588.06,350.303 585.56,351.47 583,352.5C 582.5,352.167 582,351.833 581.5,351.5C 582.246,350.264 582.579,348.93 582.5,347.5 Z"/></g>
<g><path style="opacity:1" fill="#6a87a2" d="M 628.5,455.5 C 626.193,455.388 624.027,456.388 622,458.5C 621.047,460.455 619.713,462.122 618,463.5C 617.51,464.793 617.343,466.127 617.5,467.5C 608.705,474.008 599.705,480.341 590.5,486.5C 565.82,500.963 539.32,510.296 511,514.5C 470.559,508.852 435.059,492.852 404.5,466.5C 403.05,463.575 401.217,460.908 399,458.5C 397.362,456.266 395.195,454.933 392.5,454.5C 389.121,448.895 386.288,442.895 384,436.5C 382.23,428.712 380.73,420.878 379.5,413C 379.38,406.267 380.547,399.767 383,393.5C 386.896,384.705 391.563,376.371 397,368.5C 402.555,376.053 409.388,382.22 417.5,387C 433.959,390.647 450.293,390.314 466.5,386C 479.507,379.319 487.674,368.819 491,354.5C 492.468,346.016 494.468,337.683 497,329.5C 504.5,321.738 513,320.571 522.5,326C 523.466,328.099 524.8,329.932 526.5,331.5C 528.267,342.764 531.1,353.764 535,364.5C 540.751,377.103 550.251,385.103 563.5,388.5C 575.529,389.866 587.529,389.699 599.5,388C 610.361,384.458 618.861,377.958 625,368.5C 635.032,381.416 640.865,396.083 642.5,412.5C 642.427,418.606 641.593,424.606 640,430.5C 636.841,439.142 633.008,447.476 628.5,455.5 Z"/></g>
<g><path style="opacity:1" fill="#b9daf6" d="M 543.5,485.5 C 537.845,488.827 531.845,491.327 525.5,493C 522.462,493.885 519.795,493.385 517.5,491.5C 517.829,477.656 517.496,463.99 516.5,450.5C 515.784,448.444 515.117,446.277 514.5,444C 512.231,443.242 510.064,443.409 508,444.5C 506.888,460.354 506.055,476.188 505.5,492C 503.567,492.251 501.734,492.751 500,493.5C 492.675,491.254 485.509,488.587 478.5,485.5C 474.543,477.597 470.043,469.931 465,462.5C 462.531,454.926 460.364,447.259 458.5,439.5C 456.55,445.3 455.383,451.3 455,457.5C 454.333,450.5 454.333,443.5 455,436.5C 456.54,428.465 458.207,420.465 460,412.5C 466.01,399.559 476.177,392.059 490.5,390C 491.167,389.333 491.833,388.667 492.5,388C 512.623,384.073 531.623,386.907 549.5,396.5C 552.625,398.479 555.458,400.812 558,403.5C 566.607,420.137 569.94,437.803 568,456.5C 568.009,450.555 566.842,444.888 564.5,439.5C 560.741,456.348 553.741,471.682 543.5,485.5 Z"/></g>
<g><path style="opacity:1" fill="#04070c" d="M 481.5,408.5 C 488.088,408.972 493.755,411.472 498.5,416C 502.107,421.898 500.44,424.731 493.5,424.5C 488.925,424.253 484.592,423.086 480.5,421C 477.047,417.984 476.214,414.484 478,410.5C 479.302,409.915 480.469,409.249 481.5,408.5 Z"/></g>
<g><path style="opacity:1" fill="#05060a" d="M 537.5,408.5 C 546.54,409.347 548.374,413.347 543,420.5C 536.917,424.291 530.417,425.291 523.5,423.5C 522.276,421.172 522.276,418.839 523.5,416.5C 525.958,415.876 527.624,414.376 528.5,412C 531.598,410.772 534.598,409.606 537.5,408.5 Z"/></g>
<g><path style="opacity:1" fill="#374858" d="M 612.5,575.5 C 613.415,573.072 614.582,570.739 616,568.5C 619.799,564.909 623.133,560.909 626,556.5C 629.661,551.34 634.161,547.006 639.5,543.5C 640.639,532.14 640.306,520.806 638.5,509.5C 636.468,501.974 635.301,494.307 635,486.5C 634.144,484.132 633.31,481.798 632.5,479.5C 631.325,479.281 630.325,479.614 629.5,480.5C 616.286,498.548 600.619,514.048 582.5,527C 578.941,529.566 574.941,531.232 570.5,532C 568.833,533.333 567.167,534.667 565.5,536C 558.966,537.601 552.633,539.768 546.5,542.5C 543.503,543.248 540.503,543.915 537.5,544.5C 536.571,543.311 536.238,541.978 536.5,540.5C 534.099,541.049 531.765,541.882 529.5,543C 523.635,547.427 517.635,551.593 511.5,555.5C 505.842,553.314 500.842,550.148 496.5,546C 494.608,545.027 492.608,544.36 490.5,544C 489.043,540.646 486.71,539.479 483.5,540.5C 484.04,541.748 484.707,542.915 485.5,544C 484.167,544.167 482.833,544.333 481.5,544.5C 456.432,539.139 435.099,527.305 417.5,509C 416.5,508.667 415.5,508.333 414.5,508C 405.602,498.272 397.269,488.105 389.5,477.5C 388.278,485.055 386.445,492.389 384,499.5C 382.498,513.861 381.165,528.194 380,542.5C 384.933,545.759 389.599,549.425 394,553.5C 399.082,560.963 404.248,568.296 409.5,575.5C 399.588,571.388 389.588,567.554 379.5,564C 367.139,561.561 354.806,559.061 342.5,556.5C 343.47,550.147 344.637,543.814 346,537.5C 349.701,525.54 353.034,513.54 356,501.5C 362.514,484.14 369.847,467.14 378,450.5C 379,449.833 380,449.167 381,448.5C 383.765,452.094 387.265,454.761 391.5,456.5C 392.298,456.043 392.631,455.376 392.5,454.5C 395.195,454.933 397.362,456.266 399,458.5C 401.217,460.908 403.05,463.575 404.5,466.5C 402.775,466.843 402.275,467.843 403,469.5C 410.754,476.924 418.254,484.758 425.5,493C 440.982,504.504 457.982,513.171 476.5,519C 488.389,521.244 500.222,523.744 512,526.5C 523.513,523.914 535.013,521.247 546.5,518.5C 562.013,513.117 576.68,505.95 590.5,497C 600.306,488.527 609.473,479.36 618,469.5C 618.692,468.563 618.525,467.897 617.5,467.5C 617.343,466.127 617.51,464.793 618,463.5C 619.713,462.122 621.047,460.455 622,458.5C 624.027,456.388 626.193,455.388 628.5,455.5C 628.369,456.376 628.702,457.043 629.5,457.5C 633.828,454.668 637.661,451.335 641,447.5C 642.751,449.49 643.751,451.823 644,454.5C 646.984,457.085 648.651,460.418 649,464.5C 653.118,470.402 656.451,476.735 659,483.5C 661.872,494.117 665.539,504.451 670,514.5C 673.145,526.08 676.145,537.747 679,549.5C 679.497,551.81 679.663,554.143 679.5,556.5C 670.928,558.313 662.261,559.813 653.5,561C 639.804,565.644 626.137,570.478 612.5,575.5 Z"/></g>
<g><path style="opacity:1" fill="#667887" d="M 516.5,450.5 C 517.496,463.99 517.829,477.656 517.5,491.5C 516.825,478.765 516.158,465.931 515.5,453C 516.252,452.329 516.586,451.496 516.5,450.5 Z"/></g>
<g><path style="opacity:1" fill="#06080c" d="M 404.5,466.5 C 435.059,492.852 470.559,508.852 511,514.5C 539.32,510.296 565.82,500.963 590.5,486.5C 599.705,480.341 608.705,474.008 617.5,467.5C 618.525,467.897 618.692,468.563 618,469.5C 609.473,479.36 600.306,488.527 590.5,497C 576.68,505.95 562.013,513.117 546.5,518.5C 535.013,521.247 523.513,523.914 512,526.5C 500.222,523.744 488.389,521.244 476.5,519C 457.982,513.171 440.982,504.504 425.5,493C 418.254,484.758 410.754,476.924 403,469.5C 402.275,467.843 402.775,466.843 404.5,466.5 Z"/></g>
<g><path style="opacity:1" fill="#05070a" d="M 516.5,450.5 C 516.586,451.496 516.252,452.329 515.5,453C 516.158,465.931 516.825,478.765 517.5,491.5C 519.795,493.385 522.462,493.885 525.5,493C 531.845,491.327 537.845,488.827 543.5,485.5C 548.956,481.934 554.623,478.6 560.5,475.5C 558.532,486.308 552.366,494.308 542,499.5C 532.161,505.295 521.994,505.962 511.5,501.5C 496.939,507.21 483.939,504.877 472.5,494.5C 469.068,490.401 465.901,486.067 463,481.5C 462.598,480.128 462.098,478.795 461.5,477.5C 461.833,477.167 462.167,476.833 462.5,476.5C 468.103,479.123 473.437,482.123 478.5,485.5C 485.509,488.587 492.675,491.254 500,493.5C 501.734,492.751 503.567,492.251 505.5,492C 506.055,476.188 506.888,460.354 508,444.5C 510.064,443.409 512.231,443.242 514.5,444C 515.117,446.277 515.784,448.444 516.5,450.5 Z"/></g>
<g><path style="opacity:1" fill="#6986a2" d="M 612.5,575.5 C 603.694,579.369 595.028,583.536 586.5,588C 583.827,591.091 580.66,593.591 577,595.5C 576.48,593.711 576.813,592.044 578,590.5C 583.822,583.013 589.989,575.847 596.5,569C 594.741,568.202 593.074,568.369 591.5,569.5C 584.279,573.639 577.613,578.306 571.5,583.5C 572.329,572.993 576.663,563.826 584.5,556C 571.199,557.632 563.366,565.132 561,578.5C 560.333,584.167 560.333,589.833 561,595.5C 562.42,597.422 564.253,598.755 566.5,599.5C 562.242,604.461 557.242,608.627 551.5,612C 547.532,616.482 543.199,620.315 538.5,623.5C 538.649,624.552 538.483,625.552 538,626.5C 533.538,629.055 530.204,632.721 528,637.5C 525.886,640.07 523.553,642.403 521,644.5C 517.681,649.797 514.347,655.131 511,660.5C 503.811,649.443 496.145,638.776 488,628.5C 482.842,624.043 478.009,619.209 473.5,614C 466.719,610.044 460.719,605.211 455.5,599.5C 457.567,598.866 459.4,597.866 461,596.5C 463.969,589.67 464.303,582.67 462,575.5C 458.204,568.375 453.037,562.542 446.5,558C 444.129,557.265 441.795,556.432 439.5,555.5C 441.037,559.335 443.371,563.169 446.5,567C 449.293,572.463 450.626,577.963 450.5,583.5C 448.08,581.422 446.08,579.088 444.5,576.5C 445.953,575.175 445.619,574.342 443.5,574C 443.833,573.667 444.167,573.333 444.5,573C 443.299,572.097 442.465,570.931 442,569.5C 441.667,570.167 441.333,570.833 441,571.5C 439.016,569.387 436.516,568.22 433.5,568C 432.027,567.29 431.36,566.124 431.5,564.5C 426.899,564.433 424.566,566.767 424.5,571.5C 424.846,572.696 425.346,572.696 426,571.5C 426.651,573.235 426.485,574.902 425.5,576.5C 426.024,578.453 427.024,580.12 428.5,581.5C 427.21,582.408 425.877,582.241 424.5,581C 425.866,578.562 425.366,578.062 423,579.5C 421.343,578.516 419.677,577.516 418,576.5C 417.174,566.782 416.008,566.449 414.5,575.5C 413.5,575.5 412.5,575.5 411.5,575.5C 410.833,575.5 410.167,575.5 409.5,575.5C 404.248,568.296 399.082,560.963 394,553.5C 389.599,549.425 384.933,545.759 380,542.5C 381.165,528.194 382.498,513.861 384,499.5C 386.445,492.389 388.278,485.055 389.5,477.5C 397.269,488.105 405.602,498.272 414.5,508C 415.5,508.333 416.5,508.667 417.5,509C 435.099,527.305 456.432,539.139 481.5,544.5C 482.833,544.333 484.167,544.167 485.5,544C 484.707,542.915 484.04,541.748 483.5,540.5C 486.71,539.479 489.043,540.646 490.5,544C 492.608,544.36 494.608,545.027 496.5,546C 500.842,550.148 505.842,553.314 511.5,555.5C 517.635,551.593 523.635,547.427 529.5,543C 531.765,541.882 534.099,541.049 536.5,540.5C 536.238,541.978 536.571,543.311 537.5,544.5C 540.503,543.915 543.503,543.248 546.5,542.5C 552.633,539.768 558.966,537.601 565.5,536C 567.167,534.667 568.833,533.333 570.5,532C 574.941,531.232 578.941,529.566 582.5,527C 600.619,514.048 616.286,498.548 629.5,480.5C 630.325,479.614 631.325,479.281 632.5,479.5C 633.31,481.798 634.144,484.132 635,486.5C 635.301,494.307 636.468,501.974 638.5,509.5C 640.306,520.806 640.639,532.14 639.5,543.5C 634.161,547.006 629.661,551.34 626,556.5C 623.133,560.909 619.799,564.909 616,568.5C 614.582,570.739 613.415,573.072 612.5,575.5 Z"/></g>
<g><path style="opacity:1" fill="#adadad" d="M 716.5,568.5 C 715.542,568.047 714.708,567.381 714,566.5C 711.045,566.678 707.879,566.678 704.5,566.5C 707.36,565.756 710.36,565.089 713.5,564.5C 715.288,565.283 716.288,566.616 716.5,568.5 Z"/></g>
<g><path style="opacity:1" fill="#f4f4f4" d="M 704.5,566.5 C 707.879,566.678 711.045,566.678 714,566.5C 714.708,567.381 715.542,568.047 716.5,568.5C 720.392,574.607 724.059,580.94 727.5,587.5C 695.501,591.535 664.168,598.701 633.5,609C 583.579,627.79 543.579,658.957 513.5,702.5C 512.672,703.415 511.672,704.081 510.5,704.5C 473.986,650.897 423.986,616.064 360.5,600C 339.084,594.683 317.417,590.85 295.5,588.5C 295.343,587.127 295.51,585.793 296,584.5C 299.63,577.608 303.63,570.941 308,564.5C 356.476,568.216 401.31,582.716 442.5,608C 470.822,626.452 492.322,650.952 507,681.5C 508.732,685.363 510.066,689.363 511,693.5C 519.619,667.763 534.119,645.93 554.5,628C 588.829,598.31 628.495,579.31 673.5,571C 683.739,568.799 694.072,567.299 704.5,566.5 Z"/></g>
<g><path style="opacity:1" fill="#657b91" d="M 444.5,576.5 C 439.011,573.59 433.344,570.924 427.5,568.5C 427.167,568.833 426.833,569.167 426.5,569.5C 430.473,574.973 434.973,579.973 440,584.5C 441.288,587.848 443.121,590.848 445.5,593.5C 445.167,593.833 444.833,594.167 444.5,594.5C 433.604,587.889 422.604,581.555 411.5,575.5C 412.5,575.5 413.5,575.5 414.5,575.5C 416.008,566.449 417.174,566.782 418,576.5C 419.677,577.516 421.343,578.516 423,579.5C 425.366,578.062 425.866,578.562 424.5,581C 425.877,582.241 427.21,582.408 428.5,581.5C 427.024,580.12 426.024,578.453 425.5,576.5C 426.485,574.902 426.651,573.235 426,571.5C 425.346,572.696 424.846,572.696 424.5,571.5C 424.566,566.767 426.899,564.433 431.5,564.5C 431.36,566.124 432.027,567.29 433.5,568C 436.516,568.22 439.016,569.387 441,571.5C 441.333,570.833 441.667,570.167 442,569.5C 442.465,570.931 443.299,572.097 444.5,573C 444.167,573.333 443.833,573.667 443.5,574C 445.619,574.342 445.953,575.175 444.5,576.5 Z"/></g>
<g><path style="opacity:1" fill="#364552" d="M 275.5,597.5 C 276.097,596.861 276.93,596.528 278,596.5C 284.299,597.9 290.465,599.733 296.5,602C 301.833,602.333 307.167,602.667 312.5,603C 325.027,606.232 337.694,608.732 350.5,610.5C 364.735,615.579 379.069,620.245 393.5,624.5C 399.572,626.97 405.572,629.637 411.5,632.5C 401.627,630.355 391.627,627.522 381.5,624C 367.868,622.2 354.368,619.7 341,616.5C 327.527,615.899 314.193,614.233 301,611.5C 299.293,611.648 297.626,611.982 296,612.5C 292.165,608.997 288.665,605.164 285.5,601C 282.562,598.743 279.229,597.576 275.5,597.5 Z"/></g>
<g><path style="opacity:1" fill="#364350" d="M 741.5,596.5 C 742.043,596.56 742.376,596.893 742.5,597.5C 736.353,601.813 731.02,606.98 726.5,613C 720.528,612.594 714.528,612.594 708.5,613C 697.467,615.442 686.301,616.942 675,617.5C 656.039,620.199 637.539,624.699 619.5,631C 616.874,631.995 614.207,632.328 611.5,632C 634.58,621.195 658.58,613.195 683.5,608C 697.377,605.025 711.377,602.692 725.5,601C 730.781,599.049 736.115,597.549 741.5,596.5 Z"/></g>
<g><path style="opacity:1" fill="#364350" d="M 295.5,623.5 C 325.793,624.562 355.793,628.062 385.5,634C 399.689,637.451 413.689,641.451 427.5,646C 436.167,649.594 444.5,653.927 452.5,659C 443.107,656.089 433.774,652.756 424.5,649C 412.429,646.649 400.429,643.982 388.5,641C 359.657,636.862 330.657,634.862 301.5,635C 300.061,632.225 298.228,629.725 296,627.5C 295.51,626.207 295.343,624.873 295.5,623.5 Z"/></g>
<g><path style="opacity:1" fill="#364350" d="M 724.5,623.5 C 725.675,623.281 726.675,623.614 727.5,624.5C 724.368,627.576 722.368,631.243 721.5,635.5C 681.066,633.583 641.399,637.75 602.5,648C 592.851,650.517 583.518,653.517 574.5,657C 582.231,653.315 589.898,649.482 597.5,645.5C 608.591,641.304 619.924,637.804 631.5,635C 662.254,628.761 693.254,624.928 724.5,623.5 Z"/></g>
<g><path style="opacity:1" fill="#f8f8f8" d="M 317.5,655.5 C 346.976,654.509 376.31,656.009 405.5,660C 439.684,666.487 469.851,680.987 496,703.5C 496.483,704.448 496.649,705.448 496.5,706.5C 420.167,706.5 343.833,706.5 267.5,706.5C 268.511,702.144 270.344,698.144 273,694.5C 274.012,690.117 275.179,685.784 276.5,681.5C 276.112,677.379 275.612,673.045 275,668.5C 273.326,664.979 272.16,661.313 271.5,657.5C 287,657.066 302.333,656.399 317.5,655.5 Z"/></g>
<g><path style="opacity:1" fill="#f8f8f8" d="M 739.5,657.5 C 743.442,657.875 747.109,658.875 750.5,660.5C 745.788,671.274 745.288,682.274 749,693.5C 751.726,697.619 753.893,701.952 755.5,706.5C 678.833,706.5 602.167,706.5 525.5,706.5C 528.134,702.345 531.467,698.512 535.5,695C 572.452,669.573 613.452,656.573 658.5,656C 685.679,655.371 712.679,655.871 739.5,657.5 Z"/></g>
<g><path style="opacity:1" fill="#8d8d8d" d="M 739.5,657.5 C 743.5,657.5 747.5,657.5 751.5,657.5C 751.737,658.791 751.404,659.791 750.5,660.5C 747.109,658.875 743.442,657.875 739.5,657.5 Z"/></g>
<g><path style="opacity:1" fill="#f4f4f4" d="M 339.5,735.5 C 339.5,736.5 339.5,737.5 339.5,738.5C 335.833,738.5 332.167,738.5 328.5,738.5C 327.145,729.96 322.145,726.793 313.5,729C 307.746,733.356 305.413,739.19 306.5,746.5C 306.521,751.223 307.021,755.889 308,760.5C 309.122,762.624 310.622,764.457 312.5,766C 321.166,768.95 326.5,766.117 328.5,757.5C 332.649,756.92 336.316,757.586 339.5,759.5C 337.753,768.415 332.419,773.915 323.5,776C 303.593,777.262 293.926,767.762 294.5,747.5C 295.605,723.556 307.605,715.056 330.5,722C 335.291,725.294 338.291,729.794 339.5,735.5 Z"/></g>
<g><path style="opacity:1" fill="#8b8b8b" d="M 458.5,720.5 C 454.298,720.183 450.298,720.517 446.5,721.5C 445.957,721.44 445.624,721.107 445.5,720.5C 449.984,719.189 454.317,719.189 458.5,720.5 Z"/></g>
<g><path style="opacity:1" fill="#f6f6f6" d="M 363.5,719.5 C 367.226,719.177 370.893,719.511 374.5,720.5C 381.363,738.423 388.03,756.423 394.5,774.5C 390.5,775.833 386.5,775.833 382.5,774.5C 381.26,770.944 379.927,767.444 378.5,764C 371.808,763.169 365.142,763.336 358.5,764.5C 357.292,768.122 356.292,771.789 355.5,775.5C 351.154,775.666 346.821,775.499 342.5,775C 349.602,756.527 356.602,738.027 363.5,719.5 Z"/></g>
<g><path style="opacity:1" fill="#f9f9f9" d="M 425.5,720.5 C 438.522,722.698 444.022,730.364 442,743.5C 440.314,748.394 437.147,751.894 432.5,754C 425.589,755.384 418.589,755.884 411.5,755.5C 411.5,762.167 411.5,768.833 411.5,775.5C 407.833,775.5 404.167,775.5 400.5,775.5C 400.5,757.167 400.5,738.833 400.5,720.5C 408.833,720.5 417.167,720.5 425.5,720.5 Z"/></g>
<g><path style="opacity:1" fill="#f5f5f5" d="M 446.5,721.5 C 450.298,720.517 454.298,720.183 458.5,720.5C 461.899,728.297 465.565,735.964 469.5,743.5C 473.423,735.986 477.09,728.319 480.5,720.5C 484.833,719.167 489.167,719.167 493.5,720.5C 487.411,731.677 481.578,743.01 476,754.5C 475.5,761.492 475.334,768.492 475.5,775.5C 471.5,775.5 467.5,775.5 463.5,775.5C 463.666,768.492 463.5,761.492 463,754.5C 456.962,743.757 451.462,732.757 446.5,721.5 Z"/></g>
<g><path style="opacity:1" fill="#fcfcfc" d="M 498.5,720.5 C 502.167,720.5 505.833,720.5 509.5,720.5C 509.17,736.009 509.504,751.342 510.5,766.5C 518.5,766.5 526.5,766.5 534.5,766.5C 534.5,769.5 534.5,772.5 534.5,775.5C 522.5,775.5 510.5,775.5 498.5,775.5C 498.5,757.167 498.5,738.833 498.5,720.5 Z"/></g>
<g><path style="opacity:1" fill="#fefefe" d="M 541.5,720.5 C 545.167,720.5 548.833,720.5 552.5,720.5C 552.5,738.833 552.5,757.167 552.5,775.5C 548.833,775.5 545.167,775.5 541.5,775.5C 541.5,757.167 541.5,738.833 541.5,720.5 Z"/></g>
<g><path style="opacity:1" fill="#f7f7f7" d="M 563.5,719.5 C 571.174,719.334 578.841,719.5 586.5,720C 601.752,721.561 606.585,729.395 601,743.5C 599.59,744.787 598.09,745.954 596.5,747C 602.55,748.966 605.217,753.132 604.5,759.5C 604.511,768.311 600.178,773.478 591.5,775C 582.173,775.5 572.839,775.666 563.5,775.5C 563.5,756.833 563.5,738.167 563.5,719.5 Z"/></g>
<g><path style="opacity:1" fill="#f7f7f7" d="M 637.5,720.5 C 651.954,722.395 657.121,730.395 653,744.5C 650.801,747.693 648.301,750.526 645.5,753C 648.776,760.386 652.443,767.552 656.5,774.5C 652.167,775.833 647.833,775.833 643.5,774.5C 640.194,768.224 637.194,761.891 634.5,755.5C 631.167,755.5 627.833,755.5 624.5,755.5C 624.5,762.167 624.5,768.833 624.5,775.5C 620.833,775.5 617.167,775.5 613.5,775.5C 613.5,757.167 613.5,738.833 613.5,720.5C 621.5,720.5 629.5,720.5 637.5,720.5 Z"/></g>
<g><path style="opacity:1" fill="#fbfbfb" d="M 675.5,720.5 C 675.5,738.833 675.5,757.167 675.5,775.5C 671.833,775.5 668.167,775.5 664.5,775.5C 664.5,757.167 664.5,738.833 664.5,720.5C 668.167,720.5 671.833,720.5 675.5,720.5 Z"/></g>
<g><path style="opacity:1" fill="#f6f6f6" d="M 702.5,719.5 C 706.226,719.177 709.893,719.511 713.5,720.5C 720.965,738.563 727.631,756.896 733.5,775.5C 729.445,775.824 725.445,775.491 721.5,774.5C 720.26,770.944 718.927,767.444 717.5,764C 710.842,763.5 704.175,763.334 697.5,763.5C 696.512,767.485 695.512,771.485 694.5,775.5C 690.5,775.5 686.5,775.5 682.5,775.5C 688.595,756.64 695.262,737.973 702.5,719.5 Z"/></g>
<g><path style="opacity:1" fill="#7e7e7e" d="M 541.5,720.5 C 545.298,719.517 549.298,719.183 553.5,719.5C 553.83,738.341 553.497,757.007 552.5,775.5C 552.5,757.167 552.5,738.833 552.5,720.5C 548.833,720.5 545.167,720.5 541.5,720.5 Z"/></g>
<g><path style="opacity:1" fill="#a2a2a2" d="M 425.5,720.5 C 417.167,720.5 408.833,720.5 400.5,720.5C 400.5,738.833 400.5,757.167 400.5,775.5C 399.503,757.007 399.17,738.341 399.5,719.5C 408.349,719.174 417.016,719.507 425.5,720.5 Z"/></g>
<g><path style="opacity:1" fill="#808080" d="M 498.5,720.5 C 502.298,719.517 506.298,719.183 510.5,719.5C 510.5,735.167 510.5,750.833 510.5,766.5C 509.504,751.342 509.17,736.009 509.5,720.5C 505.833,720.5 502.167,720.5 498.5,720.5 Z"/></g>
<g><path style="opacity:1" fill="#757575" d="M 637.5,720.5 C 629.5,720.5 621.5,720.5 613.5,720.5C 613.5,738.833 613.5,757.167 613.5,775.5C 612.503,757.007 612.17,738.341 612.5,719.5C 621.017,719.174 629.35,719.507 637.5,720.5 Z"/></g>
<g><path style="opacity:1" fill="#030303" d="M 411.5,729.5 C 416.511,729.334 421.511,729.501 426.5,730C 430.671,733.854 431.504,738.354 429,743.5C 428.097,744.701 426.931,745.535 425.5,746C 420.845,746.499 416.179,746.666 411.5,746.5C 411.5,740.833 411.5,735.167 411.5,729.5 Z"/></g>
<g><path style="opacity:1" fill="#040404" d="M 585.5,729.5 C 591.374,730.995 593.04,734.662 590.5,740.5C 589.15,741.95 587.484,742.617 585.5,742.5C 582.167,742.5 578.833,742.5 575.5,742.5C 575.5,738.167 575.5,733.833 575.5,729.5C 578.833,729.5 582.167,729.5 585.5,729.5 Z"/></g>
<g><path style="opacity:1" fill="#080808" d="M 624.5,729.5 C 629.179,729.334 633.845,729.501 638.5,730C 643.824,735.046 643.824,740.046 638.5,745C 633.845,745.499 629.179,745.666 624.5,745.5C 624.5,740.167 624.5,734.833 624.5,729.5 Z"/></g>
<g><path style="opacity:1" fill="#a6a6a6" d="M 675.5,720.5 C 671.833,720.5 668.167,720.5 664.5,720.5C 664.5,738.833 664.5,757.167 664.5,775.5C 663.503,757.007 663.17,738.341 663.5,719.5C 667.702,719.183 671.702,719.517 675.5,720.5 Z"/></g>
<g><path style="opacity:1" fill="#111111" d="M 368.5,734.5 C 371.001,740.658 373.334,746.991 375.5,753.5C 371.217,754.492 366.884,754.826 362.5,754.5C 363.899,747.639 365.899,740.972 368.5,734.5 Z"/></g>
<g><path style="opacity:1" fill="#888888" d="M 585.5,729.5 C 582.167,729.5 578.833,729.5 575.5,729.5C 575.5,733.833 575.5,738.167 575.5,742.5C 578.833,742.5 582.167,742.5 585.5,742.5C 582.038,743.482 578.371,743.815 574.5,743.5C 574.5,738.5 574.5,733.5 574.5,728.5C 578.371,728.185 582.038,728.518 585.5,729.5 Z"/></g>
<g><path style="opacity:1" fill="#636363" d="M 339.5,735.5 C 340.434,736.568 340.768,737.901 340.5,739.5C 336.298,739.817 332.298,739.483 328.5,738.5C 332.167,738.5 335.833,738.5 339.5,738.5C 339.5,737.5 339.5,736.5 339.5,735.5 Z"/></g>
<g><path style="opacity:1" fill="#0f0f0f" d="M 707.5,734.5 C 710.397,740.515 712.731,746.848 714.5,753.5C 710.217,754.492 705.884,754.826 701.5,754.5C 703.5,747.834 705.5,741.167 707.5,734.5 Z"/></g>
<g><path style="opacity:1" fill="#050505" d="M 575.5,751.5 C 579.846,751.334 584.179,751.501 588.5,752C 594.029,755.586 594.695,759.919 590.5,765C 585.599,766.325 580.599,766.825 575.5,766.5C 575.5,761.5 575.5,756.5 575.5,751.5 Z"/></g>
<g><path style="opacity:1" fill="#818181" d="M 328.5,757.5 C 332.298,756.517 336.298,756.183 340.5,756.5C 340.737,757.791 340.404,758.791 339.5,759.5C 336.316,757.586 332.649,756.92 328.5,757.5 Z"/></g>
<g><path style="opacity:1" fill="#1d1d1d" d="M 788.5,781.5 C 789.239,781.369 789.906,781.536 790.5,782C 787.771,787.207 783.437,790.207 777.5,791C 598.458,791.995 419.458,791.662 240.5,790C 419.134,790.66 597.8,790.66 776.5,790C 782.105,789.201 786.105,786.368 788.5,781.5 Z"/></g>
</svg>
